<svg width="32" height="31" viewBox="0 0 32 31" fill="none" xmlns="http://www.w3.org/2000/svg">
<path d="M30.8599 30.22H22.8599C22.6609 30.22 22.4999 30.059 22.4999 29.86V27.22H1.85988V26.5H22.4999V25.22H4.85988C4.10988 25.22 3.49988 24.61 3.49988 23.86V13.786C1.68088 12.445 0.499878 10.287 0.499878 7.86C0.499878 3.802 3.80188 0.5 7.85988 0.5C11.7979 0.5 15.0229 3.608 15.2109 7.5H26.8599C27.6099 7.5 28.2199 8.11 28.2199 8.86V15.5H30.8599C31.0589 15.5 31.2199 15.661 31.2199 15.86V29.86C31.2199 30.059 31.0589 30.22 30.8599 30.22ZM23.2199 29.5H30.4989V27.22H23.2199V29.5ZM23.2199 26.5H30.4989V16.22H23.2199V26.5ZM4.21988 14.256V23.86C4.21988 24.213 4.50688 24.5 4.85988 24.5H22.4999V15.86C22.4999 15.661 22.6609 15.5 22.8599 15.5H27.4999V8.86C27.4999 8.507 27.2129 8.22 26.8599 8.22H15.2109C15.0229 12.112 11.7969 15.22 7.85988 15.22C6.53688 15.22 5.29388 14.869 4.21988 14.256ZM7.85988 1.22C4.19888 1.22 1.21988 4.199 1.21988 7.86C1.21988 11.521 4.19888 14.5 7.85988 14.5C11.5209 14.5 14.4999 11.521 14.4999 7.86C14.4999 4.199 11.5209 1.22 7.85988 1.22ZM8.21988 11.86H7.49988V8.22H3.85988V7.5H7.49988V3.86H8.21988V7.5H11.8599V8.22H8.21988V11.86Z" fill="white" stroke="white" stroke-width="0.8"/>
</svg>
