<svg width="259" height="259" viewBox="0 0 259 259" fill="none" xmlns="http://www.w3.org/2000/svg">
<g opacity="0.8">
<path d="M129.421 227.287C105.761 227.287 82.9299 218.728 65.1306 203.181L67.9101 200C84.9386 214.873 106.784 223.065 129.421 223.065C139.379 223.065 149.18 221.509 158.554 218.441L159.868 222.454C150.069 225.659 139.825 227.287 129.421 227.287ZM179.428 213.549L177.263 209.922C205.459 193.108 222.978 162.293 222.978 129.509C222.978 129.134 222.975 128.759 222.971 128.383L227.195 128.333C227.198 128.723 227.201 129.115 227.201 129.509C227.201 146.751 222.649 163.704 214.042 178.532C205.689 192.917 193.72 205.028 179.428 213.549ZM50.5883 187.368C38.1925 170.506 31.6406 150.497 31.6406 129.509C31.6406 116.269 34.241 103.427 39.3698 91.3422L43.2585 92.9917C38.352 104.555 35.8638 116.839 35.8638 129.509C35.8638 149.591 42.1317 168.733 53.9913 184.864L50.5883 187.368ZM220.486 107.975C212.963 76.0302 188.82 50.0727 157.483 40.232L158.747 36.2023C191.503 46.4875 216.737 73.6191 224.599 107.009L220.486 107.975ZM53.3286 75.0639L49.8947 72.6024C68.2415 47.0082 97.9693 31.728 129.421 31.728C132.167 31.728 134.938 31.8433 137.658 32.0697L137.308 36.2784C134.704 36.0613 132.05 35.9512 129.421 35.9512C99.3286 35.9512 70.884 50.5728 53.3286 75.0639Z" fill="#E3A624"/>
</g>
<g opacity="0.3">
<path d="M58.7854 214.681C38.1779 197.59 24.4732 173.639 20.1966 147.241L24.9157 146.476C29.0071 171.732 42.1201 194.649 61.8365 211.004C70.5113 218.193 80.174 223.921 90.5559 228.019L88.8004 232.464C77.9481 228.181 67.8502 222.199 58.7854 214.681ZM112.271 238.838L113.006 234.117C149.715 239.84 187.232 225.653 210.916 197.093C211.19 196.764 211.457 196.439 211.723 196.108L215.441 199.115C215.161 199.459 214.881 199.801 214.598 200.144C202.14 215.164 185.929 226.644 167.717 233.343C150.051 239.84 130.876 241.742 112.271 238.838ZM18.9565 122.957C20.3396 99.315 29.0854 77.1527 44.2493 58.8698C53.8121 47.3363 65.3548 38.0308 78.5532 31.2072L80.7492 35.453C68.1239 41.9802 57.0813 50.8834 47.9291 61.9209C33.4186 79.4135 25.0515 100.618 23.7282 123.236L18.9565 122.957ZM224.304 176.539C240.829 143.277 238.55 103.226 218.36 72.0137L222.377 69.4153C243.477 102.036 245.855 143.901 228.585 178.667L224.304 176.539ZM102.472 27.1116L101.26 22.4892C135.731 13.4471 172.666 21.6125 200.06 44.3315C202.452 46.3155 204.785 48.4199 206.99 50.583L203.642 53.9963C201.531 51.9238 199.298 49.911 197.01 48.0104C170.799 26.273 135.457 18.4605 102.472 27.1116Z" fill="#E3A624"/>
</g>
<g opacity="0.08">
<path d="M7.23993 172.13C-3.08239 142.562 -2.34558 110.295 9.31342 81.2699L14.5028 83.3527C3.34705 111.123 2.64316 141.998 12.5199 170.287C16.8645 182.731 23.0871 194.305 31.0096 204.678L26.5662 208.069C18.2825 197.228 11.78 185.135 7.23993 172.13ZM46.227 228.63L49.8163 224.345C83.1303 252.248 129.281 260.693 170.258 246.389C170.726 246.225 171.191 246.058 171.656 245.89L173.565 251.144C173.081 251.323 172.59 251.494 172.101 251.669C150.551 259.189 127.38 260.9 105.09 256.611C83.4658 252.45 63.1125 242.775 46.227 228.63ZM22.7351 56.1933C38.4002 33.3456 60.544 16.4272 86.7772 7.27084C103.322 1.49385 120.503 -0.859577 137.847 0.27853L137.481 5.858C120.891 4.77029 104.452 7.02078 88.6192 12.5488C63.519 21.311 42.3332 37.4968 27.3463 59.3555L22.7351 56.1933ZM196.078 233.883C232.72 210.544 254.626 169.047 253.251 125.585L258.841 125.408C260.278 170.831 237.379 214.205 199.082 238.6L196.078 233.883ZM164.281 10.6204L165.856 5.257C205.847 17.0158 237.914 47.5031 251.637 86.8072C252.836 90.239 253.902 93.7552 254.804 97.255L249.389 98.6514C248.525 95.3019 247.506 91.9369 246.359 88.6481C233.23 51.043 202.544 21.8739 164.281 10.6204Z" fill="#E3A624"/>
</g>
<path opacity="0.3" d="M49.6445 125.819L125.94 49.5219C127.057 49.4756 128.175 49.4365 129.303 49.4365C146.484 49.4365 162.382 54.8894 175.401 64.1322L64.2537 175.278C55.0109 162.259 49.5591 146.361 49.5591 129.181C49.5591 128.054 49.5982 126.934 49.6445 125.819ZM203.624 100.281C199.993 90.9499 194.67 82.4686 188.009 75.2252L75.3478 187.886C82.5901 194.547 91.0725 199.871 100.404 203.503L203.624 100.281Z" fill="#E3A624"/>
<path d="M92 122.347C92.3619 121.504 92.6322 120.606 93.1014 119.828C95.8135 115.33 101.955 115.102 105.339 119.394C108.095 122.889 110.769 126.449 113.483 129.976C116.19 133.493 118.901 137.005 121.727 140.67C124.077 137.785 126.325 135.034 128.561 132.275C136.729 122.197 144.899 112.122 153.053 102.033C154.995 99.631 157.452 98.5485 160.469 99.2803C163.356 99.9808 165.259 101.832 165.975 104.792C166.01 104.935 166.147 105.055 166.237 105.185V107.495C165.334 109.031 164.608 110.707 163.504 112.079C151.969 126.4 140.374 140.672 128.799 154.961C128.456 155.385 128.146 155.839 127.848 156.296C124.932 160.773 119.086 161.115 115.744 156.884C111.355 151.33 107.084 145.682 102.764 140.073C100.019 136.508 97.2114 132.987 94.564 129.35C93.524 127.92 92.844 126.229 92 124.657C92 123.887 92 123.117 92 122.347Z" fill="#E3A624"/>
</svg>
