<svg width="37" height="28" viewBox="0 0 37 28" fill="none" xmlns="http://www.w3.org/2000/svg">
<path d="M28.0857 22.251C27.0149 22.9611 25.929 23.4444 24.7635 23.7442C24.6214 23.7808 24.5906 23.8471 24.5938 23.9757C24.6004 24.2592 24.6011 24.5431 24.5972 24.8267C24.5928 25.1896 24.4046 25.3961 24.0432 25.398C22.711 25.4051 21.3787 25.4057 20.0459 25.3994C19.7027 25.3978 19.5144 25.1899 19.5078 24.8399C19.502 24.5477 19.5149 24.2549 19.5005 23.9633C19.4971 23.893 19.4317 23.7803 19.3738 23.7647C18.3396 23.4874 17.3609 23.0806 16.4165 22.5069C16.1744 22.7599 15.9419 23.013 15.6983 23.2546C15.4366 23.5142 15.167 23.5176 14.9082 23.2606C13.9695 22.3273 13.0332 21.3911 12.0999 20.4523C11.8406 20.1914 11.8416 19.9266 12.1026 19.6618C12.3431 19.4176 12.5967 19.1866 12.8257 18.9676C12.8125 18.9042 12.8106 18.8873 12.8055 18.8716C12.6429 18.3772 12.3111 18.2577 11.795 18.2666C9.72416 18.3023 7.6514 18.2839 5.57963 18.2809C3.20511 18.2775 1.08768 16.7756 0.313269 14.5512C-0.848841 11.2134 1.34598 7.65608 4.85306 7.20406C5.03861 7.18013 5.06669 7.09465 5.07743 6.93916C5.20511 5.09054 5.91263 3.49631 7.2183 2.18185C10.3724 -0.993813 15.5906 -0.65651 18.3221 2.89117C18.3743 2.95904 18.4278 3.02628 18.4934 3.11051C18.8238 3.01394 19.1575 2.91628 19.5069 2.81414C19.5069 2.4725 19.5044 2.13816 19.5076 1.80391C19.5113 1.40666 19.6975 1.21929 20.0933 1.21878C21.3999 1.21708 22.7068 1.21717 24.0135 1.21887C24.407 1.21944 24.5935 1.4083 24.5967 1.80576C24.5999 2.1398 24.5972 2.47385 24.5972 2.78814C25.1324 2.97402 25.6514 3.12884 26.1492 3.33478C26.6079 3.52453 27.0481 3.76086 27.4871 3.99462C27.627 4.06911 27.7085 4.06633 27.8157 3.94984C28.0074 3.741 28.211 3.54274 28.4161 3.34711C28.6719 3.10371 28.9402 3.10046 29.189 3.34772C30.1343 4.28702 31.0767 5.2291 32.0159 6.17423C32.2627 6.42243 32.2564 6.69086 32.0086 6.94627C31.7698 7.19262 31.5232 7.43156 31.2879 7.66563C31.5389 8.18267 31.8037 8.67323 32.0169 9.18528C32.2044 9.63548 32.3426 10.1071 32.4839 10.575C32.5264 10.7158 32.5767 10.7728 32.7264 10.7672C33.0093 10.7566 33.2933 10.7616 33.5769 10.7649C33.9424 10.7691 34.1416 10.9589 34.1421 11.3177C34.1451 12.633 34.1453 13.9482 34.1419 15.2635C34.1407 15.6631 33.9512 15.8444 33.5547 15.8473C33.271 15.8493 32.9871 15.8424 32.7041 15.8558C32.6365 15.8591 32.5262 15.9156 32.5125 15.9677C32.2076 17.1317 31.731 18.2194 31.0274 19.2957C31.1077 19.3464 31.2005 19.3845 31.2664 19.45C32.6729 20.8519 34.0838 22.2495 35.4783 23.6633C36.6426 24.8439 36.1407 26.79 34.5616 27.2341C33.7481 27.4629 33.0301 27.2565 32.4331 26.6623C31.0313 25.2675 29.635 23.8674 28.2386 22.4674C28.1785 22.4071 28.1382 22.3269 28.0857 22.251ZM17.5105 3.50554C17.4483 3.4228 17.4004 3.35314 17.3465 3.28841C15.1487 0.653305 11.2046 0.233871 8.52225 2.37408C6.89872 3.66928 6.08036 5.37459 6.07596 7.45943C6.07499 8.00024 5.94584 8.13541 5.39676 8.16736C5.19974 8.1788 5.00199 8.19495 4.80765 8.22713C2.45975 8.61592 0.828405 10.7443 1.0286 13.1524C1.21879 15.4404 3.22098 17.2629 5.55082 17.2657C7.61381 17.2681 9.67704 17.2667 11.7403 17.2663C11.8211 17.2662 11.9014 17.2585 11.9861 17.2542C11.8531 16.8127 11.7337 16.3926 11.5943 15.9791C11.5743 15.9197 11.4602 15.8596 11.387 15.8561C11.0955 15.842 10.8025 15.8558 10.5105 15.8484C10.1573 15.8396 9.96171 15.6513 9.96049 15.3041C9.95585 13.9716 9.95585 12.6392 9.96049 11.3067C9.96171 10.9627 10.1651 10.7709 10.5122 10.7654C10.8045 10.7607 11.0974 10.774 11.3887 10.7568C11.4639 10.7523 11.5818 10.6756 11.5992 10.6105C11.8726 9.58287 12.2823 8.61401 12.8455 7.67694C12.5987 7.43652 12.3487 7.20113 12.1075 6.95711C11.8382 6.6846 11.8389 6.42243 12.1121 6.14808C13.034 5.22208 13.958 4.29832 14.8841 3.37627C15.1682 3.09288 15.4285 3.09183 15.7117 3.37295C15.949 3.60873 16.1763 3.8544 16.4073 4.09501C16.7871 3.89216 17.1341 3.70674 17.5105 3.50554ZM26.1092 20.3817C22.3208 22.4992 17.847 21.3087 15.5008 18.1386C13.1763 14.9975 13.4078 10.592 16.0496 7.74018C18.732 4.84399 23.0762 4.27418 26.4119 6.34426C29.722 8.39904 31.5286 13.14 29.1932 17.3117C29.5779 17.6972 29.9578 18.0778 30.3411 18.462C30.3389 18.4633 30.3587 18.4579 30.367 18.4452C30.4095 18.3807 30.4505 18.3151 30.4895 18.2486C31.0254 17.3378 31.3975 16.3635 31.6189 15.331C31.6971 14.9681 31.8514 14.8437 32.2283 14.842C32.5254 14.8407 32.8225 14.8418 33.1126 14.8418V11.7747C32.7852 11.7747 32.4768 11.781 32.1692 11.7729C31.8597 11.7648 31.6883 11.6232 31.6263 11.3242C31.3758 10.1161 30.9148 8.99624 30.2412 7.96268C30.0467 7.66466 30.0694 7.45701 30.3247 7.20288C30.5367 6.99178 30.7603 6.79238 30.9449 6.61956C30.1975 5.87 29.4844 5.15523 28.7522 4.42081C28.5743 4.6043 28.3799 4.80994 28.1797 5.00989C27.8929 5.29668 27.7068 5.31438 27.3616 5.09302C26.354 4.44617 25.2666 3.99285 24.0948 3.74496C23.7163 3.66502 23.5855 3.50626 23.5826 3.12254C23.5801 2.83188 23.5821 2.54118 23.5821 2.2401H20.5203C20.5203 2.55485 20.5218 2.84638 20.5196 3.13792C20.5171 3.496 20.3853 3.66831 20.0459 3.73852C18.8465 3.98682 17.7361 4.44866 16.71 5.11669C16.4092 5.31242 16.2056 5.29127 15.9527 5.0341C15.7427 4.82062 15.5452 4.59512 15.3633 4.39831C14.6075 5.15405 13.8926 5.86799 13.1541 6.60619C13.3423 6.78551 13.5513 6.97733 13.7525 7.17667C14.0418 7.46352 14.0625 7.65387 13.8413 7.99545C13.1949 8.99396 12.7493 10.0751 12.4942 11.2362C12.3985 11.6715 12.2698 11.7727 11.8189 11.776C11.5462 11.778 11.2737 11.7764 10.9922 11.7764V14.842C11.3206 14.842 11.6289 14.8388 11.9373 14.8429C12.2312 14.8467 12.4141 14.9835 12.4722 15.2646C12.7254 16.4901 13.1927 17.6256 13.8767 18.6738C14.0537 18.9451 14.0276 19.1595 13.7964 19.3913C13.5786 19.6092 13.3506 19.8164 13.1492 20.0076C13.896 20.7545 14.6099 21.4682 15.3279 22.1861C15.3221 22.1896 15.3389 22.1831 15.3506 22.1714C15.5464 21.9777 15.7398 21.7822 15.9361 21.5895C16.2007 21.3293 16.4104 21.3023 16.7171 21.5018C17.7288 22.1607 18.8257 22.6117 20.0039 22.8697C20.4056 22.9576 20.5191 23.1036 20.5201 23.5105C20.5208 23.7987 20.5203 24.087 20.5203 24.3694H23.5821C23.5821 24.0688 23.5804 23.7863 23.5823 23.5036C23.585 23.1094 23.7102 22.9852 24.0804 22.8693C24.8079 22.6418 25.5337 22.4061 26.2447 22.133C26.6143 21.9911 26.95 21.7621 27.3025 21.5717C26.888 21.1585 26.5059 20.7773 26.1092 20.3817ZM25.3792 19.6056C24.67 18.8983 23.9781 18.2052 23.282 17.5162C23.1375 17.3728 22.9715 17.3789 22.8196 17.5095C22.6458 17.6592 22.458 17.6788 22.2427 17.6205C20.7261 17.2104 19.2093 16.8021 17.6907 16.3999C17.4463 16.3351 17.3091 16.1913 17.2459 15.9537C16.9344 14.7841 16.6189 13.6155 16.3072 12.446C16.2239 12.1331 16.2932 11.9175 16.5064 11.7883C16.7337 11.6506 16.959 11.6944 17.1978 11.9315C17.6861 12.4162 18.1685 12.9065 18.6607 13.3871C18.7486 13.4732 18.8633 13.5496 18.9795 13.5862C19.4788 13.7436 19.9854 13.8788 20.4849 14.0349C20.6255 14.0789 20.7188 14.0675 20.826 13.9585C21.4412 13.3335 22.0674 12.7194 22.6787 12.0908C22.7439 12.0237 22.7779 11.8775 22.7571 11.7836C22.6411 11.2643 22.4949 10.7519 22.3767 10.2331C22.3155 9.96381 22.1941 9.75034 21.9898 9.56095C21.6309 9.22799 21.2925 8.87227 20.9473 8.52435C20.7229 8.29798 20.6734 8.07191 20.7947 7.8539C20.9226 7.62364 21.1429 7.55018 21.4693 7.63705C22.5476 7.92406 23.6248 8.21461 24.7034 8.50066C24.9424 8.56407 25.085 8.70626 25.1492 8.94771C25.5559 10.4829 25.9729 12.0155 26.3702 13.5531C26.406 13.6919 26.3733 13.8922 26.2928 14.0082C26.138 14.2305 26.187 14.3731 26.3597 14.5433C26.9971 15.1705 27.626 15.8062 28.2591 16.4378C28.3037 16.4824 28.356 16.5193 28.4078 16.5621C29.8313 13.9608 29.4656 10.0171 26.5179 7.66145C23.7044 5.41276 19.6197 5.6346 17.0328 8.17663C14.4698 10.6956 14.191 14.8078 16.386 17.6351C18.7046 20.6219 22.626 21.1055 25.3792 19.6056ZM17.8274 13.9556C17.8091 13.9725 17.7908 13.9893 17.7727 14.0063C17.8987 14.4739 18.0196 14.9432 18.158 15.4072C18.1751 15.4639 18.2832 15.5106 18.3575 15.5307C19.6333 15.8762 20.9099 16.2175 22.1875 16.5564C22.2574 16.575 22.3474 16.5915 22.4073 16.5637C23.115 16.2339 23.6697 16.4605 24.1895 16.9843C26.3631 19.1749 28.5498 21.3524 30.732 23.5345C31.5464 24.349 32.3594 25.1652 33.177 25.9763C33.5147 26.3111 33.9246 26.3969 34.3653 26.237C34.8091 26.0762 35.0567 25.7384 35.0996 25.2673C35.1355 24.8694 34.9576 24.5614 34.6807 24.2853C31.669 21.2795 28.6631 18.2675 25.6504 15.2627C25.1929 14.8066 25.044 14.3036 25.2972 13.6957C25.3245 13.6302 25.3316 13.5423 25.3133 13.474C24.9681 12.1714 24.6182 10.87 24.2644 9.56976C24.2466 9.50574 24.1912 9.42006 24.136 9.40354C23.7691 9.29406 23.3975 9.20074 23.0347 9.10422C23.1126 9.28183 23.2054 9.4378 23.2503 9.60648C23.4517 10.3611 23.6309 11.1215 23.8355 11.8752C23.9124 12.1581 23.8504 12.3695 23.6453 12.5721C22.8562 13.351 22.0706 14.1341 21.2932 14.9247C21.0813 15.1401 20.8619 15.2046 20.5735 15.1122C20.1409 14.9733 19.699 14.8613 19.2657 14.7237C18.743 14.5577 18.1541 14.5177 17.8274 13.9556Z" fill="white"/>
<path d="M12.5208 3.38546C10.2798 3.37721 8.61109 4.93398 8.45215 7.17055C8.44043 7.33343 8.43653 7.49728 8.41602 7.65901C8.38159 7.93197 8.17139 8.10655 7.90259 8.0968C7.6377 8.0872 7.42505 7.89214 7.42578 7.61933C7.43189 5.39937 8.63745 3.00014 11.4998 2.46794C11.9993 2.37498 12.5242 2.39112 13.0366 2.40026C13.3088 2.4051 13.4775 2.66104 13.4578 2.92352C13.4385 3.18339 13.2332 3.37545 12.9595 3.38464C12.8135 3.38949 12.667 3.38546 12.5208 3.38546Z" fill="white"/>
<path d="M25.2519 15.8184C25.3464 15.8844 25.5066 15.9655 25.6279 16.0861C27.7644 18.2151 29.896 20.349 32.0288 22.4818C32.7702 23.2231 33.5124 23.9634 34.2524 24.7061C34.4866 24.9408 34.5195 25.1989 34.3525 25.4194C34.164 25.6682 33.8291 25.6921 33.5857 25.4597C33.2934 25.1809 33.0127 24.8906 32.727 24.6051C30.1201 21.9982 27.5141 19.3907 24.9057 16.7855C24.7229 16.6029 24.5989 16.4142 24.709 16.1465C24.7942 15.9394 24.9612 15.8542 25.2519 15.8184Z" fill="white"/>
</svg>
