<svg width="26" height="26" viewBox="0 0 26 26" fill="none" xmlns="http://www.w3.org/2000/svg">
<path d="M5.73553 15.6396L4.83469 19.0025L1.54213 19.0722C0.558136 17.2471 0 15.159 0 12.94C0 10.7942 0.521844 8.77072 1.44685 6.98901L4.37886 7.52643L5.66294 10.4401C5.39419 11.2237 5.2477 12.0647 5.2477 12.94C5.2478 13.8898 5.41987 14.7999 5.73553 15.6396Z" fill="#FBBB00"/>
<path d="M25.6538 10.5227C25.8024 11.3055 25.8799 12.1139 25.8799 12.94C25.8799 13.8665 25.7825 14.7702 25.5969 15.6418C24.967 18.608 23.3211 21.1982 21.041 23.0311L17.3481 22.842L16.8256 19.58C18.3385 18.6927 19.5209 17.3041 20.1438 15.6418H13.2244V10.5227H25.6538Z" fill="#518EF8"/>
<path d="M21.0402 23.0303L21.0409 23.031C18.8234 24.8134 16.0064 25.8799 12.9399 25.8799C8.0121 25.8799 3.72771 23.1256 1.54213 19.0723L5.73553 15.6396C6.8283 18.5561 9.64167 20.6322 12.9399 20.6322C14.3576 20.6322 15.6858 20.2489 16.8255 19.5799L21.0402 23.0303Z" fill="#28B446"/>
<path d="M21.1995 2.97902L17.0075 6.41093C15.828 5.67366 14.4337 5.24775 12.9399 5.24775C9.56701 5.24775 6.70102 7.41909 5.66299 10.4401L1.44755 6.98898C3.60114 2.83683 7.93886 0 12.9399 0C16.0797 0 18.9584 1.1184 21.1995 2.97902Z" fill="#F14336"/>
</svg>
