<svg width="430" height="378" viewBox="0 0 430 378" fill="none" xmlns="http://www.w3.org/2000/svg">
<mask id="mask0_423_9291" style="mask-type:alpha" maskUnits="userSpaceOnUse" x="0" y="0" width="430" height="378">
<rect x="6.10352e-05" width="430" height="378" fill="white"/>
</mask>
<g mask="url(#mask0_423_9291)">
<path d="M-108.124 300.337L-90.7854 242.157L-90.2075 242.35L7.65825 297.448L-108.124 300.337ZM-90.4001 243.506L-106.968 299.567L4.19063 296.87L-90.4001 243.506Z" fill="#E3A624"/>
<path d="M26.1527 396.662L-108.894 299.567L6.30995 296.677L6.30995 297.062L26.1527 396.662ZM-106.197 300.337L24.8041 394.543L5.53923 297.64L-106.197 300.337Z" fill="#E3A624"/>
<path d="M151.76 403.79L202.812 332.895L203.005 332.895L292.587 352.931L151.76 403.79ZM203.005 333.858L154.072 402.056L289.119 353.316L203.005 333.858Z" fill="#E3A624"/>
<path d="M289.889 353.123L318.209 339.445L318.401 339.638L379.664 399.552L379.086 400.322L289.889 353.123ZM318.016 340.409L292.008 352.931L376.774 397.818L318.016 340.409Z" fill="#E3A624"/>
<path d="M373.307 323.07L373.114 322.299L519.527 241.772L519.72 242.157L549.966 308.621L549.388 308.621L373.307 323.07ZM519.142 242.928L375.426 321.914L548.617 307.658L519.142 242.928Z" fill="#E3A624"/>
<path d="M70.2693 198.619C64.8752 206.132 53.5088 198.041 59.0957 190.528C64.2972 183.014 75.6636 191.106 70.2693 198.619Z" fill="#E3A624"/>
<path d="M10.9334 300.723C6.11713 307.465 -3.9006 300.145 0.915674 293.595C5.73184 286.852 15.7497 293.98 10.9334 300.723Z" fill="#E3A624"/>
<path d="M35.2071 267.009C32.3173 271.055 26.5379 266.624 29.2349 262.771C32.1247 258.725 38.0969 262.963 35.2071 267.009Z" fill="#E3A624"/>
<path d="M153.879 288.971C147.907 297.448 135.192 288.393 141.164 279.917C147.329 271.44 160.044 280.687 153.879 288.971Z" fill="#E3A624"/>
<path d="M223.426 197.463C218.802 203.82 209.362 196.885 213.986 190.528C218.417 184.17 228.049 191.105 223.426 197.463Z" fill="#E3A624"/>
<path d="M234.792 293.017C227.279 303.612 211.481 292.246 218.995 281.65C226.701 271.055 242.305 282.421 234.792 293.017Z" fill="#E3A624"/>
<path d="M207.628 336.556C203.197 342.721 193.758 335.978 198.381 329.813C202.812 323.648 212.059 330.391 207.628 336.556Z" fill="#E3A624"/>
<path d="M292.779 328.464C285.844 338.29 271.203 327.694 278.138 318.061C285.073 308.236 299.715 318.832 292.779 328.464Z" fill="#E3A624"/>
<path d="M295.091 356.206C291.045 361.793 282.376 355.821 286.614 350.041C290.66 344.261 299.329 350.426 295.091 356.206Z" fill="#E3A624"/>
<path d="M391.608 239.846C385.251 248.708 371.958 239.075 378.315 230.406C384.673 221.544 397.966 230.984 391.608 239.846Z" fill="#E3A624"/>
<path d="M322.64 343.106C318.401 349.078 309.347 342.72 313.778 336.748C317.823 330.776 326.878 337.134 322.64 343.106Z" fill="#E3A624"/>
<path d="M377.93 325.96C373.499 332.125 364.445 325.575 368.683 319.41C373.114 313.245 382.361 319.795 377.93 325.96Z" fill="#E3A624"/>
<path d="M394.691 382.021C391.223 386.837 384.095 381.636 387.37 376.819C391.03 372.003 398.158 377.204 394.691 382.021Z" fill="#E3A624"/>
<g opacity="0.64">
<path d="M13.438 341.563C13.438 347.343 4.76872 347.343 4.76872 341.563C4.57607 335.784 13.438 335.784 13.438 341.563Z" fill="#E3A624"/>
<path d="M21.5292 187.059C21.5292 193.609 11.7041 193.609 11.7041 187.059C11.7041 180.508 21.5292 180.508 21.5292 187.059Z" fill="#E3A624"/>
<path d="M32.7029 280.301C32.7029 287.429 21.9144 287.429 21.9144 280.301C22.1071 273.173 32.7029 273.173 32.7029 280.301Z" fill="#E3A624"/>
<path d="M50.2339 147.373C50.2339 153.345 41.1794 153.345 41.1794 147.373C41.1794 141.401 50.2339 141.401 50.2339 147.373Z" fill="#E3A624"/>
<path d="M66.9944 208.443C66.9944 214.415 58.1326 214.415 58.1326 208.443C58.1326 202.663 66.9944 202.663 66.9944 208.443Z" fill="#E3A624"/>
<path d="M98.9742 51.0484C98.9742 56.8279 90.3049 56.8279 90.3049 51.0484C90.3049 45.269 98.9742 45.269 98.9742 51.0484Z" fill="#E3A624"/>
<path d="M100.901 355.242C100.901 361.406 91.6534 361.406 91.6534 355.242C91.4609 349.077 100.901 349.077 100.901 355.242Z" fill="#E3A624"/>
<path d="M106.487 142.749C106.487 146.41 101.093 146.41 101.093 142.749C101.093 139.089 106.487 139.089 106.487 142.749Z" fill="#E3A624"/>
<path d="M122.477 284.925C122.477 289.356 115.927 289.356 115.927 284.925C115.927 280.494 122.477 280.494 122.477 284.925Z" fill="#E3A624"/>
<path d="M135 228.478C134.999 233.295 127.679 233.295 127.679 228.478C127.679 223.662 135 223.469 135 228.478Z" fill="#E3A624"/>
<path d="M158.888 320.179C158.888 324.225 152.723 324.225 152.723 320.179C152.723 316.134 158.888 316.134 158.888 320.179Z" fill="#E3A624"/>
<path d="M196.069 188.6C196.069 193.223 189.134 193.223 189.134 188.6C189.134 183.976 196.069 183.976 196.069 188.6Z" fill="#E3A624"/>
<path d="M209.362 217.69C209.362 225.781 197.225 225.781 197.225 217.69C197.225 209.599 209.362 209.599 209.362 217.69Z" fill="#E3A624"/>
<path d="M219.38 252.945C219.38 257.954 211.674 257.954 211.674 252.945C211.674 247.743 219.38 247.743 219.38 252.945Z" fill="#E3A624"/>
<path d="M224.581 303.419C224.581 313.629 209.362 313.629 209.362 303.419C209.362 293.208 224.581 293.208 224.581 303.419Z" fill="#E3A624"/>
<path d="M253.286 359.865C253.286 363.333 248.085 363.333 248.085 359.865C248.085 356.397 253.286 356.397 253.286 359.865Z" fill="#E3A624"/>
<path d="M268.698 136.585C268.698 142.364 260.029 142.364 260.029 136.585C260.029 130.805 268.698 130.805 268.698 136.585Z" fill="#E3A624"/>
<path d="M276.019 209.984C276.019 215.185 268.313 215.185 268.313 209.984C268.313 204.975 276.019 204.975 276.019 209.984Z" fill="#E3A624"/>
<path d="M275.826 183.976C275.826 187.059 271.202 187.059 271.202 183.976C271.395 181.086 275.826 181.086 275.826 183.976Z" fill="#E3A624"/>
<path d="M289.119 317.097C289.119 321.528 282.569 321.528 282.569 317.097C282.569 312.859 289.119 312.859 289.119 317.097Z" fill="#E3A624"/>
<path d="M323.218 252.945C323.218 260.073 312.43 260.073 312.43 252.945C312.43 245.817 323.218 245.817 323.218 252.945Z" fill="#E3A624"/>
<path d="M344.217 151.997C344.217 158.547 334.391 158.547 334.391 151.997C334.391 145.446 344.217 145.446 344.217 151.997Z" fill="#E3A624"/>
<path d="M346.143 80.1385C346.143 84.9547 338.822 84.9547 338.822 80.1385C338.822 75.1296 346.143 75.1296 346.143 80.1385Z" fill="#E3A624"/>
<path d="M386.792 124.448C386.792 132.539 374.655 132.539 374.655 124.448C374.655 116.356 386.792 116.356 386.792 124.448Z" fill="#E3A624"/>
<path d="M390.067 209.984C390.067 216.341 380.435 216.341 380.435 209.984C380.435 203.627 390.067 203.627 390.067 209.984Z" fill="#E3A624"/>
<path d="M388.911 156.62C388.911 161.437 381.59 161.437 381.59 156.62C381.59 151.804 388.911 151.804 388.911 156.62Z" fill="#E3A624"/>
<path d="M395.461 321.72C395.461 327.115 387.37 327.115 387.37 321.72C387.37 316.326 395.461 316.326 395.461 321.72Z" fill="#E3A624"/>
<path d="M418.772 300.336C418.772 304.382 412.8 304.382 412.8 300.336C412.8 296.291 418.772 296.291 418.772 300.336Z" fill="#E3A624"/>
<path d="M428.982 121.365C428.982 128.879 417.809 128.879 417.809 121.365C417.809 113.852 428.982 113.852 428.982 121.365Z" fill="#E3A624"/>
<path d="M439.193 275.87C439.193 282.613 429.175 282.613 429.175 275.87C429.175 269.127 439.193 269.127 439.193 275.87Z" fill="#E3A624"/>
<path d="M9.19962 341.949L8.81432 341.756L-26.8258 327.885L-26.4405 327.5L27.8866 279.338L9.19962 341.949ZM-25.6699 327.693L8.81432 341.178L26.7307 281.264L-25.6699 327.693Z" fill="#E3A624"/>
<path d="M-26.2479 328.271L-48.0172 267.779L28.0792 280.108L-26.2479 328.271ZM-47.0539 268.549L-25.8626 327.307L26.9233 280.494L-47.0539 268.549Z" fill="#E3A624"/>
<path d="M-47.8245 268.935L-47.8245 268.164L-60.1541 126.76L-59.5761 127.145L17.0982 187.059L16.9056 187.251L-47.8245 268.935ZM-59.3835 128.108L-47.2466 267.394L16.3276 187.059L-59.3835 128.108Z" fill="#E3A624"/>
<path d="M27.6939 280.686L27.3086 280.686L-48.0172 268.357L-47.6319 267.972L17.0983 186.288L27.6939 280.686ZM-47.0539 267.971L27.116 280.108L16.5203 187.829L-47.0539 267.971Z" fill="#E3A624"/>
<path d="M96.2771 355.819L95.8918 355.627L26.5381 280.108L119.395 284.732L119.202 285.117L96.2771 355.819ZM28.0793 280.686L96.0844 354.664L118.817 285.117L28.0793 280.686Z" fill="#E3A624"/>
<path d="M155.035 320.757L215.72 252.174L217.261 303.611L217.068 303.611L155.035 320.757ZM215.142 253.523L156.576 319.601L216.683 303.033L215.142 253.523Z" fill="#E3A624"/>
<path d="M119.78 285.31L26.9234 280.686L27.116 280.301L62.5635 208.058L119.78 285.31ZM27.8866 280.108L118.624 284.732L62.7562 209.214L27.8866 280.108Z" fill="#E3A624"/>
<path d="M-19.1199 381.827L9.00683 341.371L9.1995 341.371L96.277 355.049L96.277 355.627L-19.1199 381.827ZM9.19959 341.949L-17.7714 381.057L94.7358 355.627L9.19959 341.949Z" fill="#E3A624"/>
<path d="M97.0476 355.819L96.2769 355.627L8.81427 341.756L8.81427 341.371L27.3085 279.723L27.6938 280.108L97.0476 355.819ZM9.39209 341.371L95.5063 355.049L27.5012 281.071L9.39209 341.371Z" fill="#E3A624"/>
<path d="M95.6991 356.012L119.01 284.539L156.384 320.372L155.998 320.565L95.6991 356.012ZM119.202 285.503L96.6623 354.664L155.42 319.987L119.202 285.503Z" fill="#E3A624"/>
<path d="M250.589 360.443L250.397 360.058L216.49 302.841L286.422 316.904L286.037 317.29L250.589 360.443ZM217.646 303.804L250.782 359.48L285.459 317.289L217.646 303.804Z" fill="#E3A624"/>
<path d="M114.001 449.062L95.8917 354.664L176.419 421.32L114.001 449.062ZM96.6623 356.012L114.386 448.098L175.263 420.935L96.6623 356.012Z" fill="#E3A624"/>
<path d="M131.725 228.864L131.147 228.671L61.9855 208.635L62.1782 208.25L103.983 142.171L104.176 142.749L131.725 228.864ZM62.9488 208.443L130.954 228.093L103.79 143.52L62.9488 208.443Z" fill="#E3A624"/>
<path d="M276.789 406.679L250.204 359.865L250.396 359.673L286.229 316.134L286.229 317.097L276.789 406.679ZM250.974 359.865L276.404 404.752L285.458 317.868L250.974 359.865Z" fill="#E3A624"/>
<path d="M118.817 285.503L131.146 228.093L131.532 228.093L216.49 252.752L215.719 252.945L118.817 285.503ZM131.532 228.864L119.395 284.732L214.371 253.138L131.532 228.864Z" fill="#E3A624"/>
<path d="M215.334 253.33L202.812 217.497L203.197 217.497L273.129 209.791L215.334 253.33ZM203.583 217.883L215.527 252.367L271.01 210.369L203.583 217.883Z" fill="#E3A624"/>
<path d="M318.594 253.137L214.564 253.137L271.973 209.599L272.166 209.791L318.594 253.137ZM216.297 252.559L317.246 252.559L272.166 210.369L216.297 252.559Z" fill="#E3A624"/>
<path d="M285.844 317.482L285.651 317.289L214.756 252.559L318.402 252.559L285.844 317.482ZM216.298 253.137L285.844 316.712L317.631 253.137L216.298 253.137Z" fill="#E3A624"/>
<path d="M318.209 253.33L271.78 209.984L271.973 209.791L339.978 151.033L318.209 253.33ZM272.551 209.984L317.824 252.174L339.015 152.575L272.551 209.984Z" fill="#E3A624"/>
<path d="M391.415 322.106L317.824 253.137L318.209 252.752L416.46 300.336L416.075 300.529L391.415 322.106ZM319.557 253.908L391.416 321.335L415.304 300.336L319.557 253.908Z" fill="#E3A624"/>
<path d="M328.612 413.999L328.419 413.614L285.459 316.904L391.994 321.528L391.801 321.913L328.612 413.999ZM286.229 317.482L328.612 413.036L390.838 322.106L286.229 317.482Z" fill="#E3A624"/>
<path d="M470.209 313.051L415.304 300.529L415.497 300.144L433.991 275.485L470.209 313.051ZM416.267 300.144L468.475 312.088L434.184 276.255L416.267 300.144Z" fill="#E3A624"/>
<path d="M66.9944 208.443C66.9944 214.415 58.1326 214.415 58.1326 208.443C58.1326 202.663 66.9944 202.663 66.9944 208.443Z" fill="#E3A624"/>
<path d="M98.9742 51.0484C98.9742 56.8279 90.3049 56.8279 90.3049 51.0484C90.3049 45.269 98.9742 45.269 98.9742 51.0484Z" fill="#E3A624"/>
<path d="M100.901 355.242C100.901 361.406 91.6534 361.406 91.6534 355.242C91.4609 349.077 100.901 349.077 100.901 355.242Z" fill="#E3A624"/>
<path d="M106.487 142.749C106.487 146.41 101.093 146.41 101.093 142.749C101.093 139.089 106.487 139.089 106.487 142.749Z" fill="#E3A624"/>
<path d="M158.888 320.179C158.888 324.225 152.723 324.225 152.723 320.179C152.723 316.134 158.888 316.134 158.888 320.179Z" fill="#E3A624"/>
<path d="M219.38 252.945C219.38 257.954 211.674 257.954 211.674 252.945C211.674 247.743 219.38 247.743 219.38 252.945Z" fill="#E3A624"/>
<path d="M275.826 183.976C275.826 187.059 271.202 187.059 271.202 183.976C271.395 181.086 275.826 181.086 275.826 183.976Z" fill="#E3A624"/>
<path d="M323.218 252.945C323.218 260.073 312.43 260.073 312.43 252.945C312.43 245.817 323.218 245.817 323.218 252.945Z" fill="#E3A624"/>
<path d="M344.217 151.997C344.217 158.547 334.391 158.547 334.391 151.997C334.391 145.446 344.217 145.446 344.217 151.997Z" fill="#E3A624"/>
<path d="M346.143 80.1385C346.143 84.9547 338.822 84.9547 338.822 80.1385C338.822 75.1296 346.143 75.1296 346.143 80.1385Z" fill="#E3A624"/>
<path d="M386.792 124.448C386.792 132.539 374.655 132.539 374.655 124.448C374.655 116.356 386.792 116.356 386.792 124.448Z" fill="#E3A624"/>
<path d="M388.911 156.62C388.911 161.437 381.59 161.437 381.59 156.62C381.59 151.804 388.911 151.804 388.911 156.62Z" fill="#E3A624"/>
<path d="M418.772 300.336C418.772 304.382 412.8 304.382 412.8 300.336C412.8 296.291 418.772 296.291 418.772 300.336Z" fill="#E3A624"/>
<path d="M428.982 121.365C428.982 128.879 417.809 128.879 417.809 121.365C417.809 113.852 428.982 113.852 428.982 121.365Z" fill="#E3A624"/>
</g>
<path opacity="0.7107" d="M28.8498 311.511C37.1339 315.942 30.5838 328.464 22.2999 324.033C14.0158 319.602 20.5659 307.08 28.8498 311.511Z" fill="#E3A624"/>
<path opacity="0.938" d="M105.524 324.611C111.496 327.886 106.68 336.748 100.708 333.665C94.7358 330.583 99.3594 321.528 105.524 324.611Z" fill="#E3A624"/>
<path opacity="0.6853" d="M294.32 344.646C302.412 348.885 296.054 360.829 287.963 356.591C279.872 352.352 286.229 340.408 294.32 344.646Z" fill="#E3A624"/>
<path opacity="0.7062" d="M302.99 160.666C310.888 164.905 304.531 176.849 296.632 172.611C288.734 168.372 294.898 156.428 302.99 160.666Z" fill="#E3A624"/>
<path opacity="0.804" d="M292.779 435.577L207.243 384.718L291.431 349.848L292.779 435.577ZM209.362 385.103L292.009 434.228L290.853 351.389L209.362 385.103Z" fill="#E3A624"/>
<path opacity="0.8217" d="M567.112 426.33L566.726 426.715L494.868 521.498L494.483 520.728L429.368 372.195L567.112 426.33ZM495.061 519.765L565.763 426.715L431.101 373.929L495.061 519.765Z" fill="#E3A624"/>
<path opacity="0.7904" d="M28.8498 311.511C37.1339 315.942 30.5838 328.464 22.2999 324.033C14.0158 319.602 20.5659 307.08 28.8498 311.511Z" fill="#E3A624"/>
<path opacity="0.8983" d="M294.32 344.646C302.412 348.885 296.054 360.829 287.963 356.591C279.872 352.352 286.229 340.408 294.32 344.646Z" fill="#E3A624"/>
<path opacity="0.6961" d="M434.762 217.113C439.578 219.617 435.725 227.13 430.909 224.433C425.9 221.929 429.753 214.608 434.762 217.113Z" fill="#E3A624"/>
</g>
</svg>
