<svg width="488" height="488" viewBox="0 0 488 488" fill="none" xmlns="http://www.w3.org/2000/svg">
<rect x="46.0605" y="46.0605" width="395" height="395" fill="white"/>
<rect x="165.061" y="70.0605" width="13" height="12" fill="black"/>
<rect x="178.061" y="70.0605" width="12" height="12" fill="black"/>
<rect x="190.061" y="70.0605" width="11" height="12" fill="black"/>
<rect x="226.061" y="70.0605" width="11" height="12" fill="black"/>
<rect x="237.061" y="70.0605" width="13" height="12" fill="black"/>
<rect x="250.061" y="70.0605" width="11" height="12" fill="black"/>
<rect x="286.061" y="70.0605" width="11" height="12" fill="black"/>
<rect x="165.061" y="82.0605" width="13" height="12" fill="black"/>
<rect x="178.061" y="82.0605" width="12" height="12" fill="black"/>
<rect x="190.061" y="82.0605" width="11" height="12" fill="black"/>
<rect x="201.061" y="82.0605" width="13" height="12" fill="black"/>
<rect x="214.061" y="82.0605" width="12" height="12" fill="black"/>
<rect x="226.061" y="82.0605" width="11" height="12" fill="black"/>
<rect x="237.061" y="82.0605" width="13" height="12" fill="black"/>
<rect x="250.061" y="82.0605" width="11" height="12" fill="black"/>
<rect x="273.061" y="82.0605" width="13" height="12" fill="black"/>
<rect x="286.061" y="82.0605" width="11" height="12" fill="black"/>
<rect x="297.061" y="82.0605" width="12" height="12" fill="black"/>
<rect x="309.061" y="82.0605" width="13" height="12" fill="black"/>
<rect x="165.061" y="94.0605" width="13" height="12" fill="black"/>
<rect x="178.061" y="94.0605" width="12" height="12" fill="black"/>
<rect x="190.061" y="94.0605" width="11" height="12" fill="black"/>
<rect x="201.061" y="94.0605" width="13" height="12" fill="black"/>
<rect x="226.061" y="94.0605" width="11" height="12" fill="black"/>
<rect x="237.061" y="94.0605" width="13" height="12" fill="black"/>
<rect x="309.061" y="94.0605" width="13" height="12" fill="black"/>
<rect x="178.061" y="106.061" width="12" height="12" fill="black"/>
<rect x="190.061" y="106.061" width="11" height="12" fill="black"/>
<rect x="201.061" y="106.061" width="13" height="12" fill="black"/>
<rect x="214.061" y="106.061" width="12" height="12" fill="black"/>
<rect x="237.061" y="106.061" width="13" height="12" fill="black"/>
<rect x="250.061" y="106.061" width="11" height="12" fill="black"/>
<rect x="273.061" y="106.061" width="13" height="12" fill="black"/>
<rect x="297.061" y="106.061" width="12" height="12" fill="black"/>
<rect x="309.061" y="106.061" width="13" height="12" fill="black"/>
<rect x="165.061" y="118.061" width="13" height="12" fill="black"/>
<rect x="178.061" y="118.061" width="12" height="12" fill="black"/>
<rect x="190.061" y="118.061" width="11" height="12" fill="black"/>
<rect x="214.061" y="118.061" width="12" height="12" fill="black"/>
<rect x="226.061" y="118.061" width="11" height="12" fill="black"/>
<rect x="250.061" y="118.061" width="11" height="12" fill="black"/>
<rect x="273.061" y="118.061" width="13" height="12" fill="black"/>
<rect x="286.061" y="118.061" width="11" height="12" fill="black"/>
<rect x="297.061" y="118.061" width="12" height="12" fill="black"/>
<rect x="178.061" y="130.061" width="12" height="12" fill="black"/>
<rect x="226.061" y="130.061" width="11" height="12" fill="black"/>
<rect x="237.061" y="130.061" width="13" height="12" fill="black"/>
<rect x="273.061" y="130.061" width="13" height="12" fill="black"/>
<rect x="309.061" y="130.061" width="13" height="12" fill="black"/>
<rect x="165.061" y="142.061" width="13" height="12" fill="black"/>
<rect x="190.061" y="142.061" width="11" height="12" fill="black"/>
<rect x="214.061" y="142.061" width="12" height="12" fill="black"/>
<rect x="237.061" y="142.061" width="13" height="12" fill="black"/>
<rect x="261.061" y="142.061" width="12" height="12" fill="black"/>
<rect x="286.061" y="142.061" width="11" height="12" fill="black"/>
<rect x="309.061" y="142.061" width="13" height="12" fill="black"/>
<rect x="178.061" y="154.061" width="12" height="11" fill="black"/>
<rect x="214.061" y="154.061" width="12" height="11" fill="black"/>
<rect x="237.061" y="154.061" width="13" height="11" fill="black"/>
<rect x="70.0607" y="165.061" width="12" height="13" fill="black"/>
<rect x="106.061" y="165.061" width="12" height="13" fill="black"/>
<rect x="118.061" y="165.061" width="12" height="13" fill="black"/>
<rect x="130.061" y="165.061" width="12" height="13" fill="black"/>
<rect x="142.061" y="165.061" width="12" height="13" fill="black"/>
<rect x="154.061" y="165.061" width="11" height="13" fill="black"/>
<rect x="165.061" y="165.061" width="13" height="13" fill="black"/>
<rect x="178.061" y="165.061" width="12" height="13" fill="black"/>
<rect x="214.061" y="165.061" width="12" height="13" fill="black"/>
<rect x="226.061" y="165.061" width="11" height="13" fill="black"/>
<rect x="237.061" y="165.061" width="13" height="13" fill="black"/>
<rect x="250.061" y="165.061" width="11" height="13" fill="black"/>
<rect x="261.061" y="165.061" width="12" height="13" fill="black"/>
<rect x="273.061" y="165.061" width="13" height="13" fill="black"/>
<rect x="322.061" y="165.061" width="11" height="13" fill="black"/>
<rect x="357.061" y="165.061" width="12" height="13" fill="black"/>
<rect x="381.061" y="165.061" width="12" height="13" fill="black"/>
<rect x="393.061" y="165.061" width="12" height="13" fill="black"/>
<rect x="405.061" y="165.061" width="12" height="13" fill="black"/>
<rect x="70.0607" y="178.061" width="12" height="12" fill="black"/>
<rect x="94.0607" y="178.061" width="12" height="12" fill="black"/>
<rect x="165.061" y="178.061" width="13" height="12" fill="black"/>
<rect x="214.061" y="178.061" width="12" height="12" fill="black"/>
<rect x="237.061" y="178.061" width="13" height="12" fill="black"/>
<rect x="273.061" y="178.061" width="13" height="12" fill="black"/>
<rect x="297.061" y="178.061" width="12" height="12" fill="black"/>
<rect x="322.061" y="178.061" width="11" height="12" fill="black"/>
<rect x="345.061" y="178.061" width="12" height="12" fill="black"/>
<rect x="357.061" y="178.061" width="12" height="12" fill="black"/>
<rect x="381.061" y="178.061" width="12" height="12" fill="black"/>
<rect x="393.061" y="178.061" width="12" height="12" fill="black"/>
<rect x="82.0607" y="190.061" width="12" height="11" fill="black"/>
<rect x="94.0607" y="190.061" width="12" height="11" fill="black"/>
<rect x="118.061" y="190.061" width="12" height="11" fill="black"/>
<rect x="130.061" y="190.061" width="12" height="11" fill="black"/>
<rect x="142.061" y="190.061" width="12" height="11" fill="black"/>
<rect x="178.061" y="190.061" width="12" height="11" fill="black"/>
<rect x="190.061" y="190.061" width="11" height="11" fill="black"/>
<rect x="237.061" y="190.061" width="13" height="11" fill="black"/>
<rect x="273.061" y="190.061" width="13" height="11" fill="black"/>
<rect x="286.061" y="190.061" width="11" height="11" fill="black"/>
<rect x="322.061" y="190.061" width="11" height="11" fill="black"/>
<rect x="345.061" y="190.061" width="12" height="11" fill="black"/>
<rect x="381.061" y="190.061" width="12" height="11" fill="black"/>
<rect x="106.061" y="201.061" width="12" height="13" fill="black"/>
<rect x="118.061" y="201.061" width="12" height="13" fill="black"/>
<rect x="165.061" y="201.061" width="13" height="13" fill="black"/>
<rect x="178.061" y="201.061" width="12" height="13" fill="black"/>
<rect x="190.061" y="201.061" width="11" height="13" fill="black"/>
<rect x="237.061" y="201.061" width="13" height="13" fill="black"/>
<rect x="250.061" y="201.061" width="11" height="13" fill="black"/>
<rect x="273.061" y="201.061" width="13" height="13" fill="black"/>
<rect x="309.061" y="201.061" width="13" height="13" fill="black"/>
<rect x="322.061" y="201.061" width="11" height="13" fill="black"/>
<rect x="333.061" y="201.061" width="12" height="13" fill="black"/>
<rect x="369.061" y="201.061" width="12" height="13" fill="black"/>
<rect x="405.061" y="201.061" width="12" height="13" fill="black"/>
<rect x="70.0607" y="214.061" width="12" height="12" fill="black"/>
<rect x="82.0607" y="214.061" width="12" height="12" fill="black"/>
<rect x="94.0607" y="214.061" width="12" height="12" fill="black"/>
<rect x="106.061" y="214.061" width="12" height="12" fill="black"/>
<rect x="142.061" y="214.061" width="12" height="12" fill="black"/>
<rect x="190.061" y="214.061" width="11" height="12" fill="black"/>
<rect x="214.061" y="214.061" width="12" height="12" fill="black"/>
<rect x="226.061" y="214.061" width="11" height="12" fill="black"/>
<rect x="237.061" y="214.061" width="13" height="12" fill="black"/>
<rect x="286.061" y="214.061" width="11" height="12" fill="black"/>
<rect x="309.061" y="214.061" width="13" height="12" fill="black"/>
<rect x="333.061" y="214.061" width="12" height="12" fill="black"/>
<rect x="345.061" y="214.061" width="12" height="12" fill="black"/>
<rect x="405.061" y="214.061" width="12" height="12" fill="black"/>
<rect x="94.0607" y="226.061" width="12" height="11" fill="black"/>
<rect x="201.061" y="226.061" width="13" height="11" fill="black"/>
<rect x="214.061" y="226.061" width="12" height="11" fill="black"/>
<rect x="273.061" y="226.061" width="13" height="11" fill="black"/>
<rect x="286.061" y="226.061" width="11" height="11" fill="black"/>
<rect x="322.061" y="226.061" width="11" height="11" fill="black"/>
<rect x="333.061" y="226.061" width="12" height="11" fill="black"/>
<rect x="357.061" y="226.061" width="12" height="11" fill="black"/>
<rect x="369.061" y="226.061" width="12" height="11" fill="black"/>
<rect x="381.061" y="226.061" width="12" height="11" fill="black"/>
<rect x="393.061" y="226.061" width="12" height="11" fill="black"/>
<rect x="405.061" y="226.061" width="12" height="11" fill="black"/>
<rect x="82.0607" y="237.061" width="12" height="13" fill="black"/>
<rect x="130.061" y="237.061" width="12" height="13" fill="black"/>
<rect x="142.061" y="237.061" width="12" height="13" fill="black"/>
<rect x="154.061" y="237.061" width="11" height="13" fill="black"/>
<rect x="165.061" y="237.061" width="13" height="13" fill="black"/>
<rect x="190.061" y="237.061" width="11" height="13" fill="black"/>
<rect x="237.061" y="237.061" width="13" height="13" fill="black"/>
<rect x="250.061" y="237.061" width="11" height="13" fill="black"/>
<rect x="273.061" y="237.061" width="13" height="13" fill="black"/>
<rect x="297.061" y="237.061" width="12" height="13" fill="black"/>
<rect x="309.061" y="237.061" width="13" height="13" fill="black"/>
<rect x="322.061" y="237.061" width="11" height="13" fill="black"/>
<rect x="333.061" y="237.061" width="12" height="13" fill="black"/>
<rect x="345.061" y="237.061" width="12" height="13" fill="black"/>
<rect x="381.061" y="237.061" width="12" height="13" fill="black"/>
<rect x="405.061" y="237.061" width="12" height="13" fill="black"/>
<rect x="70.0607" y="250.061" width="12" height="11" fill="black"/>
<rect x="82.0607" y="250.061" width="12" height="11" fill="black"/>
<rect x="118.061" y="250.061" width="12" height="11" fill="black"/>
<rect x="154.061" y="250.061" width="11" height="11" fill="black"/>
<rect x="178.061" y="250.061" width="12" height="11" fill="black"/>
<rect x="190.061" y="250.061" width="11" height="11" fill="black"/>
<rect x="226.061" y="250.061" width="11" height="11" fill="black"/>
<rect x="237.061" y="250.061" width="13" height="11" fill="black"/>
<rect x="261.061" y="250.061" width="12" height="11" fill="black"/>
<rect x="286.061" y="250.061" width="11" height="11" fill="black"/>
<rect x="345.061" y="250.061" width="12" height="11" fill="black"/>
<rect x="357.061" y="250.061" width="12" height="11" fill="black"/>
<rect x="381.061" y="250.061" width="12" height="11" fill="black"/>
<rect x="405.061" y="250.061" width="12" height="11" fill="black"/>
<rect x="118.061" y="261.061" width="12" height="12" fill="black"/>
<rect x="142.061" y="261.061" width="12" height="12" fill="black"/>
<rect x="214.061" y="261.061" width="12" height="12" fill="black"/>
<rect x="250.061" y="261.061" width="11" height="12" fill="black"/>
<rect x="297.061" y="261.061" width="12" height="12" fill="black"/>
<rect x="309.061" y="261.061" width="13" height="12" fill="black"/>
<rect x="369.061" y="261.061" width="12" height="12" fill="black"/>
<rect x="70.0607" y="273.061" width="12" height="13" fill="black"/>
<rect x="106.061" y="273.061" width="12" height="13" fill="black"/>
<rect x="165.061" y="273.061" width="13" height="13" fill="black"/>
<rect x="178.061" y="273.061" width="12" height="13" fill="black"/>
<rect x="273.061" y="273.061" width="13" height="13" fill="black"/>
<rect x="286.061" y="273.061" width="11" height="13" fill="black"/>
<rect x="297.061" y="273.061" width="12" height="13" fill="black"/>
<rect x="357.061" y="273.061" width="12" height="13" fill="black"/>
<rect x="381.061" y="273.061" width="12" height="13" fill="black"/>
<rect x="393.061" y="273.061" width="12" height="13" fill="black"/>
<rect x="70.0607" y="286.061" width="12" height="11" fill="black"/>
<rect x="82.0607" y="286.061" width="12" height="11" fill="black"/>
<rect x="94.0607" y="286.061" width="12" height="11" fill="black"/>
<rect x="142.061" y="286.061" width="12" height="11" fill="black"/>
<rect x="154.061" y="286.061" width="11" height="11" fill="black"/>
<rect x="178.061" y="286.061" width="12" height="11" fill="black"/>
<rect x="190.061" y="286.061" width="11" height="11" fill="black"/>
<rect x="226.061" y="286.061" width="11" height="11" fill="black"/>
<rect x="237.061" y="286.061" width="13" height="11" fill="black"/>
<rect x="261.061" y="286.061" width="12" height="11" fill="black"/>
<rect x="286.061" y="286.061" width="11" height="11" fill="black"/>
<rect x="297.061" y="286.061" width="12" height="11" fill="black"/>
<rect x="322.061" y="286.061" width="11" height="11" fill="black"/>
<rect x="333.061" y="286.061" width="12" height="11" fill="black"/>
<rect x="369.061" y="286.061" width="12" height="11" fill="black"/>
<rect x="405.061" y="286.061" width="12" height="11" fill="black"/>
<rect x="70.0607" y="297.061" width="12" height="12" fill="black"/>
<rect x="82.0607" y="297.061" width="12" height="12" fill="black"/>
<rect x="118.061" y="297.061" width="12" height="12" fill="black"/>
<rect x="130.061" y="297.061" width="12" height="12" fill="black"/>
<rect x="154.061" y="297.061" width="11" height="12" fill="black"/>
<rect x="165.061" y="297.061" width="13" height="12" fill="black"/>
<rect x="178.061" y="297.061" width="12" height="12" fill="black"/>
<rect x="190.061" y="297.061" width="11" height="12" fill="black"/>
<rect x="201.061" y="297.061" width="13" height="12" fill="black"/>
<rect x="226.061" y="297.061" width="11" height="12" fill="black"/>
<rect x="250.061" y="297.061" width="11" height="12" fill="black"/>
<rect x="261.061" y="297.061" width="12" height="12" fill="black"/>
<rect x="297.061" y="297.061" width="12" height="12" fill="black"/>
<rect x="322.061" y="297.061" width="11" height="12" fill="black"/>
<rect x="333.061" y="297.061" width="12" height="12" fill="black"/>
<rect x="345.061" y="297.061" width="12" height="12" fill="black"/>
<rect x="357.061" y="297.061" width="12" height="12" fill="black"/>
<rect x="369.061" y="297.061" width="12" height="12" fill="black"/>
<rect x="381.061" y="297.061" width="12" height="12" fill="black"/>
<rect x="70.0607" y="309.061" width="12" height="13" fill="black"/>
<rect x="82.0607" y="309.061" width="12" height="13" fill="black"/>
<rect x="94.0607" y="309.061" width="12" height="13" fill="black"/>
<rect x="130.061" y="309.061" width="12" height="13" fill="black"/>
<rect x="142.061" y="309.061" width="12" height="13" fill="black"/>
<rect x="178.061" y="309.061" width="12" height="13" fill="black"/>
<rect x="190.061" y="309.061" width="11" height="13" fill="black"/>
<rect x="214.061" y="309.061" width="12" height="13" fill="black"/>
<rect x="226.061" y="309.061" width="11" height="13" fill="black"/>
<rect x="273.061" y="309.061" width="13" height="13" fill="black"/>
<rect x="297.061" y="309.061" width="12" height="13" fill="black"/>
<rect x="309.061" y="309.061" width="13" height="13" fill="black"/>
<rect x="322.061" y="309.061" width="11" height="13" fill="black"/>
<rect x="333.061" y="309.061" width="12" height="13" fill="black"/>
<rect x="345.061" y="309.061" width="12" height="13" fill="black"/>
<rect x="357.061" y="309.061" width="12" height="13" fill="black"/>
<rect x="369.061" y="309.061" width="12" height="13" fill="black"/>
<rect x="381.061" y="309.061" width="12" height="13" fill="black"/>
<rect x="393.061" y="309.061" width="12" height="13" fill="black"/>
<rect x="165.061" y="322.061" width="13" height="11" fill="black"/>
<rect x="201.061" y="322.061" width="13" height="11" fill="black"/>
<rect x="226.061" y="322.061" width="11" height="11" fill="black"/>
<rect x="261.061" y="322.061" width="12" height="11" fill="black"/>
<rect x="273.061" y="322.061" width="13" height="11" fill="black"/>
<rect x="286.061" y="322.061" width="11" height="11" fill="black"/>
<rect x="309.061" y="322.061" width="13" height="11" fill="black"/>
<rect x="357.061" y="322.061" width="12" height="11" fill="black"/>
<rect x="369.061" y="322.061" width="12" height="11" fill="black"/>
<rect x="165.061" y="333.061" width="13" height="12" fill="black"/>
<rect x="226.061" y="333.061" width="11" height="12" fill="black"/>
<rect x="250.061" y="333.061" width="11" height="12" fill="black"/>
<rect x="261.061" y="333.061" width="12" height="12" fill="black"/>
<rect x="297.061" y="333.061" width="12" height="12" fill="black"/>
<rect x="309.061" y="333.061" width="13" height="12" fill="black"/>
<rect x="333.061" y="333.061" width="12" height="12" fill="black"/>
<rect x="357.061" y="333.061" width="12" height="12" fill="black"/>
<rect x="369.061" y="333.061" width="12" height="12" fill="black"/>
<rect x="165.061" y="345.06" width="13" height="12" fill="black"/>
<rect x="178.061" y="345.06" width="12" height="12" fill="black"/>
<rect x="190.061" y="345.06" width="11" height="12" fill="black"/>
<rect x="214.061" y="345.06" width="12" height="12" fill="black"/>
<rect x="226.061" y="345.06" width="11" height="12" fill="black"/>
<rect x="261.061" y="345.06" width="12" height="12" fill="black"/>
<rect x="273.061" y="345.06" width="13" height="12" fill="black"/>
<rect x="297.061" y="345.06" width="12" height="12" fill="black"/>
<rect x="309.061" y="345.06" width="13" height="12" fill="black"/>
<rect x="357.061" y="345.06" width="12" height="12" fill="black"/>
<rect x="393.061" y="345.06" width="12" height="12" fill="black"/>
<rect x="405.061" y="345.06" width="12" height="12" fill="black"/>
<rect x="165.061" y="357.061" width="13" height="12" fill="black"/>
<rect x="201.061" y="357.061" width="13" height="12" fill="black"/>
<rect x="214.061" y="357.061" width="12" height="12" fill="black"/>
<rect x="226.061" y="357.061" width="11" height="12" fill="black"/>
<rect x="250.061" y="357.061" width="11" height="12" fill="black"/>
<rect x="261.061" y="357.061" width="12" height="12" fill="black"/>
<rect x="297.061" y="357.061" width="12" height="12" fill="black"/>
<rect x="309.061" y="357.061" width="13" height="12" fill="black"/>
<rect x="322.061" y="357.061" width="11" height="12" fill="black"/>
<rect x="333.061" y="357.061" width="12" height="12" fill="black"/>
<rect x="345.061" y="357.061" width="12" height="12" fill="black"/>
<rect x="357.061" y="357.061" width="12" height="12" fill="black"/>
<rect x="369.061" y="357.061" width="12" height="12" fill="black"/>
<rect x="165.061" y="369.061" width="13" height="12" fill="black"/>
<rect x="214.061" y="369.061" width="12" height="12" fill="black"/>
<rect x="226.061" y="369.061" width="11" height="12" fill="black"/>
<rect x="237.061" y="369.061" width="13" height="12" fill="black"/>
<rect x="261.061" y="369.061" width="12" height="12" fill="black"/>
<rect x="273.061" y="369.061" width="13" height="12" fill="black"/>
<rect x="286.061" y="369.061" width="11" height="12" fill="black"/>
<rect x="297.061" y="369.061" width="12" height="12" fill="black"/>
<rect x="309.061" y="369.061" width="13" height="12" fill="black"/>
<rect x="322.061" y="369.061" width="11" height="12" fill="black"/>
<rect x="345.061" y="369.061" width="12" height="12" fill="black"/>
<rect x="393.061" y="369.061" width="12" height="12" fill="black"/>
<rect x="190.061" y="381.061" width="11" height="12" fill="black"/>
<rect x="226.061" y="381.061" width="11" height="12" fill="black"/>
<rect x="261.061" y="381.061" width="12" height="12" fill="black"/>
<rect x="322.061" y="381.061" width="11" height="12" fill="black"/>
<rect x="345.061" y="381.061" width="12" height="12" fill="black"/>
<rect x="357.061" y="381.061" width="12" height="12" fill="black"/>
<rect x="381.061" y="381.061" width="12" height="12" fill="black"/>
<rect x="393.061" y="381.061" width="12" height="12" fill="black"/>
<rect x="405.061" y="381.061" width="12" height="12" fill="black"/>
<rect x="201.061" y="393.061" width="13" height="12" fill="black"/>
<rect x="226.061" y="393.061" width="11" height="12" fill="black"/>
<rect x="250.061" y="393.061" width="11" height="12" fill="black"/>
<rect x="322.061" y="393.061" width="11" height="12" fill="black"/>
<rect x="345.061" y="393.061" width="12" height="12" fill="black"/>
<rect x="369.061" y="393.061" width="12" height="12" fill="black"/>
<rect x="381.061" y="393.061" width="12" height="12" fill="black"/>
<rect x="405.061" y="393.061" width="12" height="12" fill="black"/>
<rect x="165.061" y="405.061" width="13" height="12" fill="black"/>
<rect x="201.061" y="405.061" width="13" height="12" fill="black"/>
<rect x="214.061" y="405.061" width="12" height="12" fill="black"/>
<rect x="273.061" y="405.061" width="13" height="12" fill="black"/>
<rect x="286.061" y="405.061" width="11" height="12" fill="black"/>
<rect x="297.061" y="405.061" width="12" height="12" fill="black"/>
<rect x="309.061" y="405.061" width="13" height="12" fill="black"/>
<rect x="333.061" y="405.061" width="12" height="12" fill="black"/>
<rect x="357.061" y="405.061" width="12" height="12" fill="black"/>
<rect x="369.061" y="405.061" width="12" height="12" fill="black"/>
<path d="M141.22 70H82.5682H70V82.5682V141.22V153.788H82.5682H141.22H153.788V141.22V82.5682V70H141.22ZM141.22 141.22H82.5682V82.5682H141.22V141.22Z" fill="black"/>
<path d="M404.553 70H345.902H333.333V82.5682V141.22V153.788H345.902H404.553H417.121V141.22V82.5682V70H404.553ZM404.553 141.22H345.902V82.5682H404.553V141.22Z" fill="black"/>
<path d="M141.22 333.333H82.5682H70V345.901V404.553V417.121H82.5682H141.22H153.788V404.553V345.901V333.333H141.22ZM141.22 404.553H82.5682V345.901H141.22V404.553Z" fill="black"/>
<rect x="94.0607" y="94.0605" width="36" height="36" fill="black"/>
<rect x="357.061" y="94.0605" width="36" height="36" fill="black"/>
<rect x="94.0607" y="357.061" width="36" height="36" fill="black"/>
<path d="M61 21.5H427C448.815 21.5 466.5 39.1848 466.5 61V427C466.5 448.815 448.815 466.5 427 466.5H61C39.1848 466.5 21.5 448.815 21.5 427V61C21.5 39.1848 39.1848 21.5 61 21.5Z" stroke="#707070" stroke-linejoin="round"/>
<path d="M1 41C1 18.9086 18.9086 1 41 1H447C469.091 1 487 18.9086 487 41V447C487 469.091 469.091 487 447 487H41C18.9086 487 1 469.091 1 447V41Z" stroke="#707070" stroke-linejoin="round"/>
</svg>
