<svg width="32" height="26" viewBox="0 0 32 26" fill="none" xmlns="http://www.w3.org/2000/svg">
<path d="M5.87385 13.9137C5.73139 13.2312 5.59968 12.5951 5.46577 11.9595C4.75434 8.57943 4.03791 5.20022 3.33869 1.8175C3.28388 1.55232 3.29963 1.25068 3.36628 0.987102C3.47834 0.543025 3.89436 0.264186 4.33442 0.262782C4.8083 0.261302 5.25007 0.573482 5.40144 1.07798C5.58564 1.6923 5.73286 2.31793 5.88947 2.9403C6.78254 6.49255 7.67634 10.0447 8.56 13.5992C8.61872 13.8351 8.70478 13.9195 8.95466 13.9192C13.7265 13.9118 18.4984 13.9114 23.2703 13.9198C23.5384 13.9203 23.6236 13.8269 23.6855 13.5784C24.7011 9.50274 25.7303 5.43045 26.7487 1.35556C26.8878 0.799571 27.1577 0.373698 27.7521 0.272639C28.475 0.149684 29.1074 0.86555 28.9504 1.61906C28.4583 3.98391 27.9569 6.34674 27.46 8.71063C27.1002 10.4225 26.7419 12.1348 26.3736 13.8922C26.5186 13.9002 26.6401 13.9125 26.7615 13.9128C27.6174 13.9145 28.4733 13.9116 29.3293 13.9143C30.4774 13.918 31.22 14.6585 31.2219 15.8069C31.225 17.706 31.2236 19.6051 31.2226 21.5042C31.2217 22.7336 30.5134 23.4428 29.285 23.4477C29.169 23.4481 29.0533 23.4477 28.8758 23.4477C28.8758 23.7169 28.8848 23.9585 28.874 24.1992C28.8486 24.772 28.6113 24.996 28.036 24.9972C27.1096 24.9991 26.1833 24.9997 25.2571 24.9969C24.7302 24.9953 24.4623 24.7345 24.4416 24.2031C24.4326 23.9704 24.4401 23.737 24.4401 23.4759H7.78547C7.78547 23.7232 7.79377 23.9654 7.78376 24.2069C7.76179 24.7379 7.49396 24.9953 6.9643 24.9969C6.02644 24.9996 5.08833 24.9999 4.15046 24.9968C3.62434 24.9951 3.38203 24.7636 3.35322 24.2304C3.34003 23.9869 3.35102 23.742 3.35102 23.4313C3.03327 23.4313 2.75031 23.4701 2.48176 23.4241C1.60627 23.2741 1.02485 22.5969 1.01594 21.6687C0.997017 19.6761 0.991767 17.6831 1.01789 15.6906C1.03181 14.6172 1.79804 13.9194 2.87885 13.9146C3.73469 13.9107 4.59064 13.9137 5.44648 13.9137C5.5727 13.9137 5.69892 13.9137 5.87385 13.9137ZM30.5491 20.7902C30.5596 20.682 30.5761 20.5902 30.5762 20.4983C30.5775 18.9395 30.5841 17.3807 30.5736 15.8219C30.5678 14.9719 30.1696 14.5721 29.3244 14.5661C28.1994 14.5582 27.0742 14.5795 25.949 14.5766C23.3474 14.5697 20.7456 14.5502 18.1436 14.5462C14.6047 14.5407 11.0656 14.5454 7.52668 14.5446C5.99238 14.5441 4.4582 14.5408 2.92414 14.5388C2.11555 14.5377 1.66669 14.9827 1.66547 15.7962C1.66315 17.3433 1.66437 18.8904 1.6656 20.4375C1.66572 20.5506 1.67817 20.6636 1.68574 20.7902H30.5491ZM30.5424 21.4773H1.70441C1.59565 22.1761 1.94794 22.6808 2.61347 22.7855C2.83186 22.8198 3.05671 22.822 3.27851 22.8224C4.79975 22.8253 6.32111 22.8239 7.84235 22.8239C14.6174 22.8239 21.3924 22.8243 28.1674 22.8232C28.623 22.8231 29.0819 22.8455 29.5331 22.7992C30.2521 22.7255 30.6121 22.2426 30.5424 21.4773ZM24.2386 13.9137C24.6741 13.9137 25.0478 13.9039 25.4207 13.9173C25.6452 13.9254 25.7364 13.8628 25.7871 13.6198C26.6127 9.65531 27.4538 5.69389 28.2871 1.73091C28.3176 1.58502 28.3488 1.4129 28.2995 1.28346C28.2441 1.13728 28.1166 0.952983 27.9859 0.919276C27.857 0.886012 27.6498 0.984843 27.5416 1.09133C27.436 1.19532 27.3944 1.37764 27.355 1.53331C26.619 4.45141 25.888 7.37086 25.1546 10.2897C24.8565 11.4764 24.5551 12.6623 24.2386 13.9137ZM7.96174 13.9123C7.94294 13.7996 7.93623 13.7313 7.91987 13.6653C7.70124 12.7818 7.48212 11.8984 7.26154 11.0154C6.46406 7.82302 5.66657 4.63058 4.86713 1.4387C4.7757 1.07325 4.52668 0.846004 4.28449 0.891353C4.01374 0.942073 3.86994 1.24766 3.93525 1.63537C3.94111 1.66986 3.95454 1.70289 3.96174 1.73716C4.39558 3.80314 4.82929 5.86903 5.26276 7.93508C5.66254 9.84115 6.05964 11.7478 6.4687 13.652C6.48981 13.7498 6.60688 13.8959 6.68635 13.9006C7.10322 13.9256 7.52241 13.9123 7.96174 13.9123ZM3.99372 23.4646C3.99372 23.724 3.97236 23.9476 4.00434 24.1632C4.01667 24.2468 4.14875 24.3751 4.22822 24.3764C5.11603 24.3917 6.00422 24.3917 6.89191 24.3765C6.97224 24.3752 7.10664 24.248 7.11823 24.1654C7.14985 23.9408 7.12897 23.7088 7.12897 23.4646H3.99372ZM25.0959 23.4657C25.0959 23.7165 25.1019 23.9261 25.0941 24.1353C25.0876 24.3109 25.1536 24.3892 25.3369 24.3882C26.2249 24.3836 27.113 24.3907 28.0009 24.3777C28.0784 24.3766 28.2121 24.2664 28.2205 24.1953C28.2485 23.9582 28.2311 23.7159 28.2311 23.4657H25.0959Z" fill="#666666" stroke="#666666" stroke-width="0.3"/>
<path d="M15.9821 3.07666C18.4941 3.12918 20.6759 3.74747 22.6053 5.15286C22.719 5.23557 22.8333 5.31851 22.9387 5.41113C23.2639 5.69708 23.3043 6.06293 23.0553 6.41241C22.3721 7.3714 22.1321 7.40686 21.1608 6.74753C19.311 5.49213 17.2644 5.04318 15.0532 5.28186C13.4324 5.45673 11.9771 6.03735 10.6808 7.02707C10.298 7.31934 9.94863 7.27356 9.62001 6.92508C8.75991 6.01343 8.78676 5.72894 9.82113 5.01596C11.4472 3.89505 13.2499 3.2771 15.2188 3.13858C15.5224 3.11719 15.8255 3.08948 15.9821 3.07666ZM22.6156 5.95737C20.3674 4.17178 17.83 3.52173 15.0579 3.76703C13.0428 3.9454 11.2148 4.65076 9.6144 5.96103C9.82564 6.20547 9.99837 6.40536 10.1458 6.5759C14.1553 3.90994 18.1079 3.92416 22.0842 6.58066C22.2447 6.39236 22.4109 6.1976 22.6156 5.95737Z" fill="#666666" stroke="#666666" stroke-width="0.3"/>
<path d="M16.1452 6.44434C17.8565 6.44522 19.4181 6.92053 20.811 7.9249C21.3191 8.29114 21.3667 8.68756 20.9689 9.1713C20.9018 9.25269 20.8301 9.33029 20.7603 9.40942C20.2652 9.97083 20.0298 9.99896 19.4157 9.57037C17.5056 8.23706 14.7607 8.23386 12.8381 9.56262C12.1856 10.0134 11.9659 9.98355 11.4474 9.37256C11.3867 9.30109 11.3273 9.22852 11.2678 9.15604C10.876 8.67969 10.9205 8.30093 11.4108 7.93637C12.7262 6.95847 14.3549 6.44611 16.1452 6.44434ZM12.1533 9.22766C12.2192 9.2114 12.2446 9.21112 12.2629 9.19952C12.3319 9.1557 12.3995 9.10962 12.4659 9.06183C13.4849 8.32883 14.638 7.98166 15.8772 7.94019C17.3061 7.8923 18.6291 8.25317 19.8174 9.07303C19.9041 9.1329 20.0966 9.15872 20.1633 9.1051C20.3306 8.97025 20.454 8.78091 20.594 8.61447C18.1567 6.47534 13.7289 6.66971 11.6518 8.64346C11.8229 8.84259 11.9946 9.04272 12.1533 9.22766Z" fill="#666666" stroke="#666666" stroke-width="0.3"/>
<path d="M16.0978 9.81999C17.0938 9.79564 17.9996 10.0618 18.8242 10.6033C19.2821 10.904 19.3504 11.3444 19.0113 11.7669C18.9746 11.8126 18.9344 11.8554 18.8952 11.8989C18.2531 12.6132 18.2279 12.6109 17.3593 12.2002C16.4999 11.794 15.6408 11.8121 14.7984 12.2614C14.1292 12.6183 13.9537 12.5888 13.4411 12.0152C13.3553 11.9192 13.2658 11.8255 13.1886 11.7228C12.8933 11.3304 12.9538 10.903 13.3611 10.6281C14.1887 10.0696 15.104 9.79445 16.0978 9.81999ZM18.603 11.2738C17.4872 10.1765 14.7312 10.1765 13.6298 11.2728C13.7151 11.3757 13.8144 11.4738 13.8879 11.5885C14.0674 11.8691 14.2473 11.8754 14.5461 11.7147C15.5318 11.1843 16.5547 11.1769 17.5758 11.6297C18.1128 11.8679 18.1095 11.8767 18.4883 11.4307C18.5253 11.3873 18.5561 11.3385 18.603 11.2738Z" fill="#666666" stroke="#666666" stroke-width="0.3"/>
<path d="M16.0775 18.8173C14.9283 18.8173 13.779 18.8241 12.6299 18.8144C12.0775 18.8097 11.6376 18.4358 11.5535 17.937C11.4533 17.3419 11.7242 16.8343 12.2617 16.6386C12.3899 16.5919 12.5352 16.574 12.6727 16.5738C14.9711 16.57 17.2695 16.5666 19.568 16.5739C20.2415 16.5761 20.7058 17.0527 20.7032 17.6982C20.7004 18.3441 20.2366 18.8106 19.5604 18.8161C18.3995 18.8254 17.2386 18.8187 16.0775 18.8187V18.8173ZM16.1232 17.1856C15.0227 17.1856 13.9224 17.185 12.822 17.186C12.3837 17.1863 12.1617 17.3532 12.1571 17.6807C12.1524 18.0069 12.3877 18.1998 12.8068 18.2002C15.0075 18.2018 17.2084 18.2016 19.4092 18.2003C19.8403 18.2001 20.0659 18.024 20.0698 17.6957C20.074 17.3559 19.8626 17.1866 19.4243 17.186C18.324 17.1847 17.2236 17.1856 16.1232 17.1856Z" fill="#666666" stroke="#666666" stroke-width="0.3"/>
<path d="M4.30986 17.657C4.30992 17.412 4.27525 17.1597 4.32347 16.9245C4.35057 16.7923 4.49595 16.6213 4.6212 16.5864C4.83244 16.5274 4.92942 16.7004 4.93052 16.9038C4.93339 17.4289 4.93425 17.9542 4.92991 18.4793C4.9282 18.6798 4.83323 18.857 4.62046 18.7977C4.4954 18.7628 4.34684 18.5907 4.32347 18.46C4.27702 18.1998 4.30979 17.9256 4.30986 17.657Z" fill="#666666" stroke="#666666" stroke-width="0.3"/>
<path d="M6.27738 17.6812C6.27726 17.4244 6.27934 17.1677 6.27653 16.9109C6.27421 16.6996 6.37052 16.575 6.58512 16.573C6.80766 16.571 6.88822 16.7083 6.88761 16.9147C6.88566 17.4399 6.90275 17.9659 6.87309 18.4894C6.86674 18.6017 6.71049 18.7695 6.59526 18.7977C6.39164 18.8477 6.27897 18.698 6.27787 18.4864C6.27653 18.2181 6.27751 17.9496 6.27738 17.6812Z" fill="#666666" stroke="#666666" stroke-width="0.3"/>
<path d="M8.24069 17.6728C8.2402 17.4277 8.24313 17.1826 8.23935 16.9376C8.23617 16.7196 8.31705 16.5345 8.5505 16.5872C8.66983 16.614 8.82937 16.8012 8.83725 16.9242C8.86935 17.4356 8.86941 17.9514 8.837 18.4628C8.82925 18.5849 8.66891 18.7656 8.54721 18.797C8.34213 18.85 8.23953 18.6878 8.24069 18.4779C8.24203 18.2095 8.24106 17.9411 8.24069 17.6728Z" fill="#666666" stroke="#666666" stroke-width="0.3"/>
<path d="M23.9904 17.7086C23.9905 17.9652 23.9912 18.2218 23.9902 18.4784C23.9894 18.6848 23.8934 18.848 23.682 18.7989C23.5637 18.7715 23.3977 18.6071 23.3914 18.4967C23.3611 17.9619 23.361 17.4234 23.3913 16.8885C23.3975 16.7776 23.563 16.6131 23.6814 16.5851C23.8917 16.5354 23.9903 16.6952 23.9904 16.9037C23.9904 17.172 23.9904 17.4403 23.9904 17.7086Z" fill="#666666" stroke="#666666" stroke-width="0.3"/>
<path d="M25.3392 17.671C25.3392 17.4142 25.3397 17.1573 25.339 16.9004C25.3383 16.6887 25.4435 16.5352 25.6509 16.5855C25.7678 16.6138 25.9285 16.7802 25.9345 16.8918C25.9643 17.4272 25.9642 17.9661 25.9343 18.5016C25.9282 18.6104 25.7482 18.7094 25.6482 18.813C25.5457 18.7126 25.3725 18.6233 25.3543 18.5094C25.3109 18.2361 25.3403 17.9512 25.3403 17.671H25.3392Z" fill="#666666" stroke="#666666" stroke-width="0.3"/>
<path d="M27.3029 17.6436C27.3034 17.3986 27.3037 17.1536 27.3032 16.9085C27.3027 16.7016 27.3977 16.5324 27.6069 16.5863C27.7307 16.6181 27.8951 16.7976 27.9031 16.9197C27.9363 17.431 27.9359 17.9468 27.9037 18.4582C27.8958 18.5818 27.7365 18.7683 27.6163 18.7969C27.3807 18.853 27.3013 18.6642 27.3023 18.4488C27.3034 18.1804 27.3026 17.912 27.3029 17.6436Z" fill="#666666" stroke="#666666" stroke-width="0.3"/>
</svg>
