<svg width="32" height="22" viewBox="0 0 32 22" fill="none" xmlns="http://www.w3.org/2000/svg">
<path d="M23.0069 2.05125C23.8298 2.05125 24.5417 2.06507 25.2529 2.04694C25.8221 2.03236 26.1401 2.24403 26.1356 2.85114C26.1281 3.87824 26.1289 4.90549 26.1352 5.93275C26.139 6.5326 25.8229 6.76237 25.2574 6.75489C24.5451 6.74537 23.8326 6.75263 23.0105 6.75263C23.0828 7.73804 22.4809 7.81074 21.7441 7.77656C20.8743 7.73618 20.0014 7.76926 19.1297 7.76646C17.4092 7.76087 16.7311 7.13691 16.5517 5.4026C16.5394 5.28303 16.5063 5.16553 16.4739 5.00169C16.1819 4.9864 15.9103 4.96003 15.6387 4.95985C11.8408 4.95722 8.0432 4.95609 4.24556 4.95908C2.78246 4.96021 2.13091 5.58604 2.11895 7.04349C2.10247 9.06666 2.10045 11.0902 2.11968 13.1135C2.13369 14.5926 2.86712 15.2465 4.48897 15.1564C4.48897 14.1857 4.48263 13.2022 4.49047 12.2188C4.50298 10.6412 5.37294 9.69862 6.96532 9.69373C14.3738 9.67188 21.7824 9.67283 29.1908 9.69245C30.805 9.69657 31.6821 10.5928 31.7002 12.1932C31.7269 14.5586 31.7255 16.9248 31.7013 19.2903C31.6846 20.9251 30.7755 21.7827 29.1135 21.7835C21.7673 21.787 14.421 21.7874 7.07479 21.7833C5.37352 21.7823 4.49813 20.898 4.48974 19.1963C4.48504 18.2684 4.48897 17.3406 4.48897 16.3806C4.19384 16.36 3.98198 16.3494 3.77086 16.3299C2.13482 16.1788 1.06011 15.1026 1.03173 13.4667C0.992116 11.1951 0.985585 8.92149 1.03432 6.65009C1.07094 4.93705 2.25979 3.83134 3.98107 3.82703C8.11977 3.81641 12.2585 3.82349 16.4632 3.82349C16.5013 3.55653 16.5403 3.32209 16.5674 3.08616C16.7218 1.75028 17.5091 1.02976 18.8603 1.01313C19.794 1.00156 20.7284 1.0264 21.6617 1.00568C22.3892 0.989418 23.1093 0.937294 23.0069 2.05125ZM18.1406 20.6585C21.7831 20.6585 25.4257 20.6632 29.0681 20.6557C30.1636 20.6535 30.5964 20.2406 30.6065 19.1362C30.6272 16.8948 30.6244 14.653 30.6081 12.4116C30.5996 11.2566 30.1695 10.807 29.0279 10.8053C21.7428 10.7939 14.4578 10.7937 7.17284 10.8051C6.01482 10.8068 5.62401 11.2385 5.62084 12.4074C5.61504 14.5865 5.6173 16.7658 5.61974 18.9451C5.62139 20.3398 5.9302 20.6564 7.30642 20.6577C10.9178 20.6611 14.5292 20.6589 18.1406 20.6585ZM21.799 2.14014C20.728 2.14014 19.7669 2.13734 18.8056 2.14109C18.1326 2.1435 17.7378 2.51957 17.6976 3.15546C17.6448 3.98939 17.6033 4.84272 17.7309 5.66056C17.7864 6.01661 18.248 6.54475 18.5708 6.58021C19.6313 6.69718 20.7127 6.62412 21.799 6.62412V2.14014ZM24.9583 5.56623V3.2027H23.0318V5.56623H24.9583Z" fill="white" stroke="white" stroke-width="0.3"/>
<path d="M14.3865 15.6964C14.3876 15.0121 14.3871 14.3278 14.3878 13.6435C14.3885 12.9718 14.7173 12.6013 15.3938 12.5518C15.4558 12.5473 15.5178 12.5423 15.5798 12.5382C17.9534 12.3777 18.1393 12.5509 18.1391 14.9226C18.1391 15.8557 18.1451 16.7888 18.1365 17.7219C18.1288 18.5516 17.7255 18.9569 16.869 18.9797C14.4556 19.0436 14.3856 18.9913 14.3854 16.6295C14.3854 16.3184 14.3854 16.0074 14.3865 15.6964ZM15.554 17.7925H16.9529V13.7406H15.554V17.7925Z" fill="white" stroke="white" stroke-width="0.3"/>
<path d="M23.4083 15.7828C23.4081 16.4048 23.4128 17.0271 23.4055 17.649C23.4031 17.8655 23.4356 18.1152 23.3427 18.2926C22.7345 19.4547 21.6374 18.859 20.7474 18.9516C20.0826 19.0209 19.6891 18.5481 19.6701 17.9189C19.6266 16.4895 19.6296 15.0572 19.6641 13.6272C19.6794 12.9963 20.0405 12.579 20.7188 12.5513C23.636 12.4322 23.4406 12.6117 23.4091 14.8497C23.4048 15.1605 23.4085 15.4718 23.4083 15.7828ZM20.8266 17.7848H22.2256V13.7521H20.8266V17.7848Z" fill="white" stroke="white" stroke-width="0.3"/>
<path d="M25.016 15.707C25.0166 15.0538 25.0099 14.4005 25.0205 13.7474C25.0241 13.5326 25.002 13.2682 25.1126 13.1123C25.8191 12.1164 26.8679 12.6098 27.7775 12.5778C28.461 12.5537 28.75 13.0762 28.7597 13.7018C28.7808 15.07 28.7853 16.4393 28.7591 17.8075C28.7453 18.531 28.3683 18.9689 27.597 18.9708C25.2152 18.9767 24.9234 19.2043 25.0142 16.5469C25.0239 16.2673 25.0155 15.9871 25.016 15.707ZM27.5893 17.8131V13.7338H26.2133V17.8131H27.5893Z" fill="white" stroke="white" stroke-width="0.3"/>
<path d="M9.93713 14.6706C9.31769 14.6697 8.69263 14.7173 8.08197 14.6445C7.86322 14.6183 7.67902 14.3013 7.47913 14.1171C7.67902 13.9286 7.87238 13.5856 8.0799 13.577C9.31659 13.5253 10.5579 13.5195 11.7938 13.5778C12.0273 13.5888 12.2439 13.9578 12.468 14.1616C12.2439 14.3315 12.0333 14.6205 11.7927 14.6482C11.1813 14.7183 10.5566 14.6714 9.93713 14.6706Z" fill="white" stroke="white" stroke-width="0.3"/>
<path d="M10.0071 16.8491C10.6283 16.8491 11.2537 16.8093 11.8687 16.8711C12.0798 16.8923 12.2653 17.1676 12.4624 17.3268C12.2709 17.5274 12.0863 17.8935 11.887 17.9018C10.6156 17.9545 9.33987 17.9539 8.06845 17.9018C7.86465 17.8935 7.67502 17.5394 7.47888 17.3451C7.70026 17.1775 7.90836 16.8919 8.1456 16.8654C8.75928 16.7966 9.38565 16.8422 10.0071 16.8422V16.8491Z" fill="white" stroke="white" stroke-width="0.3"/>
</svg>
