<svg width="32" height="26" viewBox="0 0 32 26" fill="none" xmlns="http://www.w3.org/2000/svg">
<path d="M5.87373 14.6549C5.73127 13.9724 5.59956 13.3364 5.46564 12.7007C4.75422 9.32064 4.03779 5.94143 3.33857 2.55871C3.28376 2.29353 3.29951 1.99189 3.36616 1.72831C3.47822 1.28424 3.89423 1.0054 4.3343 1.00399C4.80817 1.00251 5.24995 1.31469 5.40131 1.81919C5.58552 2.43351 5.73273 3.05914 5.88935 3.68151C6.78242 7.23376 7.67622 10.7859 8.55988 14.3404C8.6186 14.5763 8.70466 14.6607 8.95454 14.6604C13.7264 14.653 18.4982 14.6526 23.2702 14.661C23.5383 14.6615 23.6235 14.5681 23.6854 14.3196C24.701 10.244 25.7302 6.17166 26.7486 2.09677C26.8876 1.54078 27.1575 1.11491 27.752 1.01385C28.4749 0.890895 29.1072 1.60676 28.9503 2.36027C28.4582 4.72512 27.9567 7.08795 27.4599 9.45184C27.1 11.1638 26.7418 12.876 26.3735 14.6334C26.5185 14.6414 26.64 14.6537 26.7614 14.654C27.6173 14.6557 28.4732 14.6528 29.3292 14.6555C30.4772 14.6592 31.2199 15.3997 31.2217 16.5481C31.2249 18.4472 31.2235 20.3463 31.2225 22.2454C31.2216 23.4748 30.5133 24.184 29.2849 24.1889C29.1689 24.1893 29.0532 24.1889 28.8757 24.1889C28.8757 24.4581 28.8847 24.6997 28.8738 24.9404C28.8485 25.5132 28.6112 25.7373 28.0358 25.7384C27.1094 25.7403 26.1832 25.7409 25.257 25.7381C24.73 25.7365 24.4622 25.4757 24.4415 24.9443C24.4324 24.7116 24.44 24.4782 24.44 24.2171H7.78535C7.78535 24.4644 7.79365 24.7066 7.78364 24.9481C7.76166 25.4791 7.49384 25.7366 6.96418 25.7381C6.02631 25.7408 5.0882 25.7411 4.15034 25.738C3.62421 25.7363 3.3819 25.5048 3.3531 24.9717C3.33991 24.7281 3.3509 24.4833 3.3509 24.1725C3.03315 24.1725 2.75019 24.2113 2.48164 24.1653C1.60615 24.0153 1.02473 23.3381 1.01582 22.41C0.996894 20.4174 0.991645 18.4243 1.01777 16.4318C1.03168 15.3584 1.79792 14.6607 2.87873 14.6558C3.73457 14.6519 4.59052 14.6549 5.44636 14.6549C5.57258 14.6549 5.6988 14.6549 5.87373 14.6549ZM30.549 21.5314C30.5595 21.4232 30.576 21.3314 30.5761 21.2395C30.5773 19.6807 30.5839 18.1219 30.5734 16.5631C30.5677 15.7131 30.1695 15.3133 29.3243 15.3073C28.1993 15.2994 27.074 15.3207 25.9489 15.3178C23.3472 15.311 20.7454 15.2914 18.1435 15.2874C14.6046 15.2819 11.0655 15.2866 7.52656 15.2858C5.99226 15.2853 4.45808 15.282 2.92402 15.28C2.11542 15.279 1.66657 15.7239 1.66535 16.5374C1.66303 18.0845 1.66425 19.6316 1.66547 21.1788C1.6656 21.2918 1.67805 21.4048 1.68562 21.5314H30.549ZM30.5423 22.2185H1.70429C1.59553 22.9173 1.94782 23.422 2.61335 23.5267C2.83173 23.561 3.05659 23.5632 3.27839 23.5636C4.79963 23.5665 6.32099 23.5651 7.84223 23.5651C14.6173 23.5651 21.3923 23.5655 28.1673 23.5644C28.6229 23.5644 29.0817 23.5867 29.533 23.5404C30.252 23.4667 30.612 22.9838 30.5423 22.2185ZM24.2385 14.6549C24.674 14.6549 25.0477 14.6451 25.4206 14.6585C25.6451 14.6666 25.7363 14.604 25.7869 14.361C26.6126 10.3965 27.4537 6.4351 28.2869 2.47212C28.3175 2.32623 28.3487 2.15411 28.2994 2.02467C28.244 1.87849 28.1165 1.69419 27.9858 1.66049C27.8569 1.62722 27.6497 1.72605 27.5415 1.83255C27.4359 1.93653 27.3942 2.11885 27.3549 2.27452C26.6188 5.19262 25.8879 8.11207 25.1545 11.0309C24.8564 12.2176 24.555 13.4035 24.2385 14.6549ZM7.96162 14.6535C7.94282 14.5409 7.9361 14.4725 7.91975 14.4065C7.70112 13.523 7.482 12.6396 7.26142 11.7566C6.46394 8.56423 5.66645 5.37179 4.86701 2.17991C4.77558 1.81446 4.52656 1.58721 4.28437 1.63256C4.01362 1.68328 3.86982 1.98887 3.93513 2.37658C3.94099 2.41107 3.95441 2.4441 3.96162 2.47837C4.39545 4.54435 4.82917 6.61024 5.26264 8.6763C5.66242 10.5824 6.05952 12.489 6.46857 14.3932C6.48969 14.491 6.60676 14.6371 6.68623 14.6419C7.1031 14.6668 7.52228 14.6535 7.96162 14.6535ZM3.9936 24.2058C3.9936 24.4652 3.97224 24.6888 4.00422 24.9045C4.01655 24.988 4.14863 25.1163 4.2281 25.1176C5.11591 25.1329 6.0041 25.1329 6.89179 25.1177C6.97211 25.1164 7.10651 24.9892 7.11811 24.9066C7.14973 24.682 7.12885 24.4501 7.12885 24.2058H3.9936ZM25.0958 24.207C25.0958 24.4577 25.1018 24.6673 25.0939 24.8765C25.0875 25.0521 25.1535 25.1304 25.3367 25.1294C26.2248 25.1248 27.1129 25.1319 28.0008 25.1189C28.0783 25.1178 28.212 25.0077 28.2204 24.9365C28.2484 24.6994 28.231 24.4571 28.231 24.207H25.0958Z" fill="white" stroke="white" stroke-width="0.3"/>
<path d="M15.982 3.81787C18.494 3.87039 20.6757 4.48868 22.6052 5.89407C22.7188 5.97678 22.8331 6.05972 22.9386 6.15234C23.2638 6.43829 23.3042 6.80414 23.0552 7.15363C22.372 8.11261 22.132 8.14807 21.1607 7.48874C19.3109 6.23334 17.2643 5.78439 15.0531 6.02307C13.4323 6.19794 11.9769 6.77856 10.6807 7.76828C10.2979 8.06055 9.94851 8.01477 9.61989 7.66629C8.75978 6.75464 8.78664 6.47015 9.821 5.75717C11.447 4.63626 13.2498 4.01831 15.2186 3.87979C15.5223 3.8584 15.8254 3.83069 15.982 3.81787ZM22.6154 6.69858C20.3673 4.91299 17.8299 4.26294 15.0578 4.50824C13.0427 4.68661 11.2147 5.39197 9.61428 6.70224C9.82552 6.94669 9.99825 7.14658 10.1457 7.31711C14.1552 4.65115 18.1078 4.66537 22.0841 7.32187C22.2446 7.13358 22.4108 6.93881 22.6154 6.69858Z" fill="white" stroke="white" stroke-width="0.3"/>
<path d="M16.1452 7.18555C17.8565 7.18643 19.4181 7.66174 20.811 8.66611C21.3191 9.03235 21.3667 9.42877 20.9689 9.91251C20.9018 9.9939 20.8301 10.0715 20.7603 10.1506C20.2652 10.712 20.0298 10.7402 19.4157 10.3116C17.5056 8.97827 14.7607 8.97507 12.8381 10.3038C12.1856 10.7546 11.9659 10.7248 11.4474 10.1138C11.3867 10.0423 11.3273 9.96973 11.2678 9.89725C10.876 9.4209 10.9205 9.04214 11.4108 8.67758C12.7262 7.69968 14.3549 7.18732 16.1452 7.18555ZM12.1533 9.96887C12.2192 9.95261 12.2446 9.95233 12.2629 9.94073C12.3319 9.89691 12.3995 9.85083 12.4659 9.80304C13.4849 9.07004 14.638 8.72287 15.8772 8.6814C17.3061 8.63351 18.6291 8.99438 19.8174 9.81424C19.9041 9.87411 20.0966 9.89993 20.1633 9.84631C20.3306 9.71146 20.454 9.52213 20.594 9.35568C18.1567 7.21655 13.7289 7.41092 11.6518 9.38467C11.8229 9.5838 11.9946 9.78394 12.1533 9.96887Z" fill="white" stroke="white" stroke-width="0.3"/>
<path d="M16.0976 10.5612C17.0937 10.5368 17.9995 10.803 18.8241 11.3445C19.282 11.6452 19.3503 12.0856 19.0112 12.5081C18.9745 12.5538 18.9343 12.5966 18.8951 12.6401C18.253 13.3544 18.2278 13.3521 17.3592 12.9414C16.4997 12.5352 15.6407 12.5533 14.7983 13.0026C14.1291 13.3595 13.9536 13.33 13.441 12.7565C13.3552 12.6604 13.2657 12.5667 13.1885 12.464C12.8932 12.0716 12.9536 11.6442 13.3609 11.3693C14.1886 10.8108 15.1039 10.5357 16.0976 10.5612ZM18.6029 12.015C17.487 10.9177 14.7311 10.9177 13.6297 12.014C13.7149 12.1169 13.8143 12.215 13.8877 12.3297C14.0673 12.6103 14.2472 12.6166 14.5459 12.4559C15.5317 11.9255 16.5545 11.9181 17.5757 12.3709C18.1127 12.6091 18.1093 12.6179 18.4881 12.1719C18.5252 12.1285 18.5559 12.0797 18.6029 12.015Z" fill="white" stroke="white" stroke-width="0.3"/>
<path d="M16.0774 19.5585C14.9282 19.5585 13.7789 19.5653 12.6298 19.5556C12.0774 19.551 11.6375 19.177 11.5534 18.6782C11.4532 18.0831 11.7241 17.5755 12.2616 17.3798C12.3898 17.3331 12.5351 17.3152 12.6725 17.315C14.971 17.3112 17.2694 17.3078 19.5679 17.3151C20.2414 17.3173 20.7057 17.7939 20.7031 18.4394C20.7003 19.0853 20.2364 19.5518 19.5603 19.5574C18.3993 19.5666 17.2385 19.5599 16.0774 19.5599V19.5585ZM16.123 17.9268C15.0226 17.9268 13.9222 17.9262 12.8218 17.9272C12.3836 17.9275 12.1616 18.0944 12.157 18.4219C12.1523 18.7481 12.3876 18.941 12.8066 18.9414C15.0074 18.943 17.2082 18.9428 19.4091 18.9415C19.8401 18.9413 20.0657 18.7652 20.0697 18.4369C20.0739 18.0971 19.8625 17.9278 19.4242 17.9272C18.3238 17.9259 17.2234 17.9268 16.123 17.9268Z" fill="white" stroke="white" stroke-width="0.3"/>
<path d="M4.30998 18.3982C4.31004 18.1532 4.27537 17.9009 4.32359 17.6657C4.35069 17.5335 4.49607 17.3625 4.62132 17.3276C4.83256 17.2687 4.92955 17.4417 4.93064 17.645C4.93351 18.1701 4.93437 18.6954 4.93003 19.2205C4.92832 19.421 4.83335 19.5982 4.62059 19.5389C4.49552 19.504 4.34696 19.3319 4.32359 19.2012C4.27714 18.941 4.30992 18.6668 4.30998 18.3982Z" fill="white" stroke="white" stroke-width="0.3"/>
<path d="M6.27738 18.4224C6.27726 18.1656 6.27934 17.9089 6.27653 17.6522C6.27421 17.4408 6.37052 17.3162 6.58512 17.3142C6.80766 17.3122 6.88822 17.4495 6.88761 17.6559C6.88566 18.1811 6.90275 18.7071 6.87309 19.2306C6.86674 19.3429 6.71049 19.5107 6.59526 19.5389C6.39164 19.5889 6.27897 19.4392 6.27787 19.2277C6.27653 18.9593 6.27751 18.6908 6.27738 18.4224Z" fill="white" stroke="white" stroke-width="0.3"/>
<path d="M8.24057 18.414C8.24008 18.1689 8.24301 17.9238 8.23923 17.6788C8.23605 17.4608 8.31692 17.2757 8.55038 17.3284C8.66971 17.3552 8.82925 17.5424 8.83713 17.6654C8.86923 18.1768 8.86929 18.6926 8.83688 19.204C8.82913 19.3261 8.66879 19.5068 8.54709 19.5382C8.34201 19.5912 8.23941 19.429 8.24057 19.2191C8.24191 18.9507 8.24093 18.6823 8.24057 18.414Z" fill="white" stroke="white" stroke-width="0.3"/>
<path d="M23.9903 18.4498C23.9904 18.7064 23.9911 18.963 23.9901 19.2196C23.9893 19.4261 23.8933 19.5892 23.6818 19.5401C23.5636 19.5127 23.3975 19.3484 23.3913 19.2379C23.361 18.7031 23.3609 18.1646 23.3912 17.6298C23.3974 17.5189 23.5628 17.3543 23.6813 17.3263C23.8916 17.2766 23.9902 17.4364 23.9903 17.6449C23.9903 17.9132 23.9903 18.1815 23.9903 18.4498Z" fill="white" stroke="white" stroke-width="0.3"/>
<path d="M25.3393 18.4122C25.3393 18.1554 25.3398 17.8985 25.3391 17.6416C25.3384 17.4299 25.4436 17.2764 25.651 17.3268C25.7679 17.355 25.9286 17.5214 25.9347 17.633C25.9644 18.1685 25.9643 18.7073 25.9344 19.2428C25.9283 19.3516 25.7483 19.4507 25.6484 19.5542C25.5458 19.4538 25.3726 19.3645 25.3544 19.2506C25.311 18.9773 25.3404 18.6924 25.3404 18.4122H25.3393Z" fill="white" stroke="white" stroke-width="0.3"/>
<path d="M27.3027 18.3849C27.3032 18.1398 27.3036 17.8948 27.3031 17.6497C27.3026 17.4428 27.3975 17.2736 27.6068 17.3275C27.7305 17.3593 27.895 17.5388 27.903 17.6609C27.9362 18.1722 27.9358 18.688 27.9036 19.1994C27.8957 19.323 27.7364 19.5095 27.6162 19.5381C27.3806 19.5942 27.3012 19.4055 27.3021 19.19C27.3033 18.9216 27.3024 18.6532 27.3027 18.3849Z" fill="white" stroke="white" stroke-width="0.3"/>
</svg>
