<svg width="219" height="67" viewBox="0 0 219 67" fill="none" xmlns="http://www.w3.org/2000/svg">
<path d="M76.7009 39.6804C75.5809 39.6804 74.5076 39.5338 73.4809 39.2404C72.4543 38.9338 71.6276 38.5404 71.0009 38.0604L72.1009 35.6204C72.7009 36.0471 73.4076 36.4004 74.2209 36.6804C75.0476 36.9471 75.8809 37.0804 76.7209 37.0804C77.3609 37.0804 77.8743 37.0204 78.2609 36.9004C78.6609 36.7671 78.9543 36.5871 79.1409 36.3604C79.3276 36.1338 79.4209 35.8738 79.4209 35.5804C79.4209 35.2071 79.2743 34.9138 78.9809 34.7004C78.6876 34.4738 78.3009 34.2938 77.8209 34.1604C77.3409 34.0138 76.8076 33.8804 76.2209 33.7604C75.6476 33.6271 75.0676 33.4671 74.4809 33.2804C73.9076 33.0938 73.3809 32.8538 72.9009 32.5604C72.4209 32.2671 72.0276 31.8804 71.7209 31.4004C71.4276 30.9204 71.2809 30.3071 71.2809 29.5604C71.2809 28.7604 71.4943 28.0338 71.9209 27.3804C72.3609 26.7138 73.0143 26.1871 73.8809 25.8004C74.7609 25.4004 75.8609 25.2004 77.1809 25.2004C78.0609 25.2004 78.9276 25.3071 79.7809 25.5204C80.6343 25.7204 81.3876 26.0271 82.0409 26.4404L81.0409 28.9004C80.3876 28.5271 79.7343 28.2538 79.0809 28.0804C78.4276 27.8938 77.7876 27.8004 77.1609 27.8004C76.5343 27.8004 76.0209 27.8738 75.6209 28.0204C75.2209 28.1671 74.9343 28.3604 74.7609 28.6004C74.5876 28.8271 74.5009 29.0938 74.5009 29.4004C74.5009 29.7604 74.6476 30.0538 74.9409 30.2804C75.2343 30.4938 75.6209 30.6671 76.1009 30.8004C76.5809 30.9338 77.1076 31.0671 77.6809 31.2004C78.2676 31.3338 78.8476 31.4871 79.4209 31.6604C80.0076 31.8338 80.5409 32.0671 81.0209 32.3604C81.5009 32.6538 81.8876 33.0404 82.1809 33.5204C82.4876 34.0004 82.6409 34.6071 82.6409 35.3404C82.6409 36.1271 82.4209 36.8471 81.9809 37.5004C81.5409 38.1538 80.8809 38.6804 80.0009 39.0804C79.1343 39.4804 78.0343 39.6804 76.7009 39.6804ZM87.5595 39.4404V28.0804H83.0795V25.4404H95.2795V28.0804H90.7995V39.4404H87.5595ZM103.627 39.6804C102.521 39.6804 101.494 39.5004 100.547 39.1404C99.6141 38.7804 98.8008 38.2738 98.1075 37.6204C97.4275 36.9671 96.8941 36.2004 96.5075 35.3204C96.1341 34.4404 95.9475 33.4804 95.9475 32.4404C95.9475 31.4004 96.1341 30.4404 96.5075 29.5604C96.8941 28.6804 97.4341 27.9138 98.1275 27.2604C98.8208 26.6071 99.6341 26.1004 100.567 25.7404C101.501 25.3804 102.514 25.2004 103.607 25.2004C104.714 25.2004 105.727 25.3804 106.647 25.7404C107.581 26.1004 108.387 26.6071 109.067 27.2604C109.761 27.9138 110.301 28.6804 110.687 29.5604C111.074 30.4271 111.267 31.3871 111.267 32.4404C111.267 33.4804 111.074 34.4471 110.687 35.3404C110.301 36.2204 109.761 36.9871 109.067 37.6404C108.387 38.2804 107.581 38.7804 106.647 39.1404C105.727 39.5004 104.721 39.6804 103.627 39.6804ZM103.607 36.9204C104.234 36.9204 104.807 36.8138 105.327 36.6004C105.861 36.3871 106.327 36.0804 106.727 35.6804C107.127 35.2804 107.434 34.8071 107.647 34.2604C107.874 33.7138 107.987 33.1071 107.987 32.4404C107.987 31.7738 107.874 31.1671 107.647 30.6204C107.434 30.0738 107.127 29.6004 106.727 29.2004C106.341 28.8004 105.881 28.4938 105.347 28.2804C104.814 28.0671 104.234 27.9604 103.607 27.9604C102.981 27.9604 102.401 28.0671 101.867 28.2804C101.347 28.4938 100.887 28.8004 100.487 29.2004C100.087 29.6004 99.7741 30.0738 99.5475 30.6204C99.3341 31.1671 99.2275 31.7738 99.2275 32.4404C99.2275 33.0938 99.3341 33.7004 99.5475 34.2604C99.7741 34.8071 100.081 35.2804 100.467 35.6804C100.867 36.0804 101.334 36.3871 101.867 36.6004C102.401 36.8138 102.981 36.9204 103.607 36.9204ZM120.402 39.6804C119.322 39.6804 118.316 39.5071 117.382 39.1604C116.462 38.8004 115.662 38.2938 114.982 37.6404C114.302 36.9871 113.769 36.2204 113.382 35.3404C113.009 34.4604 112.822 33.4938 112.822 32.4404C112.822 31.3871 113.009 30.4204 113.382 29.5404C113.769 28.6604 114.302 27.8938 114.982 27.2404C115.676 26.5871 116.482 26.0871 117.402 25.7404C118.322 25.3804 119.329 25.2004 120.422 25.2004C121.636 25.2004 122.729 25.4138 123.702 25.8404C124.689 26.2538 125.516 26.8671 126.182 27.6804L124.102 29.6004C123.622 29.0538 123.089 28.6471 122.502 28.3804C121.916 28.1004 121.276 27.9604 120.582 27.9604C119.929 27.9604 119.329 28.0671 118.782 28.2804C118.236 28.4938 117.762 28.8004 117.362 29.2004C116.962 29.6004 116.649 30.0738 116.422 30.6204C116.209 31.1671 116.102 31.7738 116.102 32.4404C116.102 33.1071 116.209 33.7138 116.422 34.2604C116.649 34.8071 116.962 35.2804 117.362 35.6804C117.762 36.0804 118.236 36.3871 118.782 36.6004C119.329 36.8138 119.929 36.9204 120.582 36.9204C121.276 36.9204 121.916 36.7871 122.502 36.5204C123.089 36.2404 123.622 35.8204 124.102 35.2604L126.182 37.1804C125.516 37.9938 124.689 38.6138 123.702 39.0404C122.729 39.4671 121.629 39.6804 120.402 39.6804ZM131.27 36.2404L131.09 32.5004L137.79 25.4404H141.39L135.35 31.9404L133.55 33.8604L131.27 36.2404ZM128.37 39.4404V25.4404H131.59V39.4404H128.37ZM137.95 39.4404L132.97 33.3404L135.09 31.0404L141.73 39.4404H137.95ZM151.739 39.4404V28.0804H147.259V25.4404H159.459V28.0804H154.979V39.4404H151.739ZM167.807 39.6804C166.701 39.6804 165.674 39.5004 164.727 39.1404C163.794 38.7804 162.981 38.2738 162.287 37.6204C161.607 36.9671 161.074 36.2004 160.687 35.3204C160.314 34.4404 160.127 33.4804 160.127 32.4404C160.127 31.4004 160.314 30.4404 160.687 29.5604C161.074 28.6804 161.614 27.9138 162.307 27.2604C163.001 26.6071 163.814 26.1004 164.747 25.7404C165.681 25.3804 166.694 25.2004 167.787 25.2004C168.894 25.2004 169.907 25.3804 170.827 25.7404C171.761 26.1004 172.567 26.6071 173.247 27.2604C173.941 27.9138 174.481 28.6804 174.867 29.5604C175.254 30.4271 175.447 31.3871 175.447 32.4404C175.447 33.4804 175.254 34.4471 174.867 35.3404C174.481 36.2204 173.941 36.9871 173.247 37.6404C172.567 38.2804 171.761 38.7804 170.827 39.1404C169.907 39.5004 168.901 39.6804 167.807 39.6804ZM167.787 36.9204C168.414 36.9204 168.987 36.8138 169.507 36.6004C170.041 36.3871 170.507 36.0804 170.907 35.6804C171.307 35.2804 171.614 34.8071 171.827 34.2604C172.054 33.7138 172.167 33.1071 172.167 32.4404C172.167 31.7738 172.054 31.1671 171.827 30.6204C171.614 30.0738 171.307 29.6004 170.907 29.2004C170.521 28.8004 170.061 28.4938 169.527 28.2804C168.994 28.0671 168.414 27.9604 167.787 27.9604C167.161 27.9604 166.581 28.0671 166.047 28.2804C165.527 28.4938 165.067 28.8004 164.667 29.2004C164.267 29.6004 163.954 30.0738 163.727 30.6204C163.514 31.1671 163.407 31.7738 163.407 32.4404C163.407 33.0938 163.514 33.7004 163.727 34.2604C163.954 34.8071 164.261 35.2804 164.647 35.6804C165.047 36.0804 165.514 36.3871 166.047 36.6004C166.581 36.8138 167.161 36.9204 167.787 36.9204ZM184.682 39.6804C183.576 39.6804 182.549 39.5004 181.602 39.1404C180.669 38.7804 179.856 38.2738 179.162 37.6204C178.482 36.9671 177.949 36.2004 177.562 35.3204C177.189 34.4404 177.002 33.4804 177.002 32.4404C177.002 31.4004 177.189 30.4404 177.562 29.5604C177.949 28.6804 178.489 27.9138 179.182 27.2604C179.876 26.6071 180.689 26.1004 181.622 25.7404C182.556 25.3804 183.569 25.2004 184.662 25.2004C185.769 25.2004 186.782 25.3804 187.702 25.7404C188.636 26.1004 189.442 26.6071 190.122 27.2604C190.816 27.9138 191.356 28.6804 191.742 29.5604C192.129 30.4271 192.322 31.3871 192.322 32.4404C192.322 33.4804 192.129 34.4471 191.742 35.3404C191.356 36.2204 190.816 36.9871 190.122 37.6404C189.442 38.2804 188.636 38.7804 187.702 39.1404C186.782 39.5004 185.776 39.6804 184.682 39.6804ZM184.662 36.9204C185.289 36.9204 185.862 36.8138 186.382 36.6004C186.916 36.3871 187.382 36.0804 187.782 35.6804C188.182 35.2804 188.489 34.8071 188.702 34.2604C188.929 33.7138 189.042 33.1071 189.042 32.4404C189.042 31.7738 188.929 31.1671 188.702 30.6204C188.489 30.0738 188.182 29.6004 187.782 29.2004C187.396 28.8004 186.936 28.4938 186.402 28.2804C185.869 28.0671 185.289 27.9604 184.662 27.9604C184.036 27.9604 183.456 28.0671 182.922 28.2804C182.402 28.4938 181.942 28.8004 181.542 29.2004C181.142 29.6004 180.829 30.0738 180.602 30.6204C180.389 31.1671 180.282 31.7738 180.282 32.4404C180.282 33.0938 180.389 33.7004 180.602 34.2604C180.829 34.8071 181.136 35.2804 181.522 35.6804C181.922 36.0804 182.389 36.3871 182.922 36.6004C183.456 36.8138 184.036 36.9204 184.662 36.9204ZM194.757 39.4404V25.4404H197.997V36.8004H205.017V39.4404H194.757ZM211.369 39.6804C210.249 39.6804 209.176 39.5338 208.149 39.2404C207.122 38.9338 206.296 38.5404 205.669 38.0604L206.769 35.6204C207.369 36.0471 208.076 36.4004 208.889 36.6804C209.716 36.9471 210.549 37.0804 211.389 37.0804C212.029 37.0804 212.542 37.0204 212.929 36.9004C213.329 36.7671 213.622 36.5871 213.809 36.3604C213.996 36.1338 214.089 35.8738 214.089 35.5804C214.089 35.2071 213.942 34.9138 213.649 34.7004C213.356 34.4738 212.969 34.2938 212.489 34.1604C212.009 34.0138 211.476 33.8804 210.889 33.7604C210.316 33.6271 209.736 33.4671 209.149 33.2804C208.576 33.0938 208.049 32.8538 207.569 32.5604C207.089 32.2671 206.696 31.8804 206.389 31.4004C206.096 30.9204 205.949 30.3071 205.949 29.5604C205.949 28.7604 206.162 28.0338 206.589 27.3804C207.029 26.7138 207.682 26.1871 208.549 25.8004C209.429 25.4004 210.529 25.2004 211.849 25.2004C212.729 25.2004 213.596 25.3071 214.449 25.5204C215.302 25.7204 216.056 26.0271 216.709 26.4404L215.709 28.9004C215.056 28.5271 214.402 28.2538 213.749 28.0804C213.096 27.8938 212.456 27.8004 211.829 27.8004C211.202 27.8004 210.689 27.8738 210.289 28.0204C209.889 28.1671 209.602 28.3604 209.429 28.6004C209.256 28.8271 209.169 29.0938 209.169 29.4004C209.169 29.7604 209.316 30.0538 209.609 30.2804C209.902 30.4938 210.289 30.6671 210.769 30.8004C211.249 30.9338 211.776 31.0671 212.349 31.2004C212.936 31.3338 213.516 31.4871 214.089 31.6604C214.676 31.8338 215.209 32.0671 215.689 32.3604C216.169 32.6538 216.556 33.0404 216.849 33.5204C217.156 34.0004 217.309 34.6071 217.309 35.3404C217.309 36.1271 217.089 36.8471 216.649 37.5004C216.209 38.1538 215.549 38.6804 214.669 39.0804C213.802 39.4804 212.702 39.6804 211.369 39.6804Z" fill="white"/>
<path d="M0 16.8986L29.5132 0L57.8359 16.6606L58.0741 49.9817L29.5132 66.8804L0.238037 50.2197L0 16.8986Z" fill="white"/>
<rect x="42.0084" y="15.0962" width="4.19267" height="36.6869" fill="#F2A121"/>
<rect x="11.8728" y="15.0962" width="4.19267" height="36.6869" fill="#F2A121"/>
<circle cx="35.9373" cy="33.163" r="2.54781" fill="#F2A121"/>
<circle cx="24.5529" cy="33.163" r="2.54781" fill="#F2A121"/>
<circle cx="19.0207" cy="33.163" r="2.54781" fill="#F2A121"/>
<circle cx="21.9615" cy="42.7714" r="2.54781" fill="#F2A121"/>
<circle cx="29.9978" cy="42.7714" r="2.54781" fill="#F2A121"/>
<circle cx="38.5581" cy="42.7714" r="2.54781" fill="#F2A121"/>
<rect x="15.2015" y="22.4043" width="28.6507" height="1.35876" fill="#F2A121"/>
<rect x="15.2015" y="32.1006" width="28.6507" height="1.35876" fill="#F2A121"/>
<rect x="15.2015" y="41.8838" width="28.6507" height="1.35876" fill="#F2A121"/>
<circle cx="20.9133" cy="23.205" r="2.54781" fill="#F2A121"/>
<circle cx="26.4455" cy="23.205" r="2.54781" fill="#F2A121"/>
<circle cx="31.9779" cy="23.205" r="2.54781" fill="#F2A121"/>
<circle cx="37.5097" cy="23.205" r="2.54782" fill="#F2A121"/>
</svg>
