<svg width="33" height="25" viewBox="0 0 33 25" fill="none" xmlns="http://www.w3.org/2000/svg">
<path d="M32.075 12.1021C32.075 15.1935 32.0725 18.2849 32.0769 21.3763C32.0779 22.0441 32.113 22.7118 32.113 23.3795C32.113 23.9957 31.8396 24.2645 31.2278 24.2675C30.2761 24.2717 29.3245 24.2805 28.3733 24.2584C27.9197 24.2478 27.3997 23.9734 27.4019 23.296C27.4231 16.8564 27.4148 10.4169 27.4148 3.97742C27.4148 2.98657 27.4109 1.99585 27.4153 1.00501C27.4187 0.261598 27.6714 0.000489171 28.405 0.000245031C29.365 0.000122961 30.3252 0.0125741 31.2849 0.0258798C31.8821 0.0343026 32.1148 0.295899 32.1155 0.962525C32.1172 4.67554 32.116 8.38879 32.116 12.1019L32.075 12.1021Z" fill="#FEFEFE"/>
<path d="M20.5732 15.1181C20.5732 12.4243 20.5725 9.73066 20.5738 7.03706C20.5741 6.24995 20.8027 6.01899 21.5858 6.01606C22.5058 6.01289 23.426 6.00825 24.3459 6.01704C25.0056 6.02338 25.2571 6.2729 25.2576 6.93964C25.2617 12.4106 25.2621 17.8817 25.2578 23.3526C25.2571 24.0152 24.9978 24.2634 24.3453 24.2665C23.3917 24.2714 22.4382 24.2714 21.4847 24.2663C20.8376 24.2629 20.5752 24.0009 20.5744 23.3496C20.5713 20.6057 20.5732 17.8619 20.5732 15.1181Z" fill="#FEFEFE"/>
<path d="M18.3936 17.3778C18.3936 19.334 18.3949 21.2903 18.393 23.2464C18.3923 24.0456 18.1751 24.2661 17.3946 24.2676C16.4584 24.2694 15.5223 24.2729 14.5862 24.266C13.9928 24.2616 13.7317 24.0043 13.7314 23.4067C13.7272 19.4109 13.7273 15.4149 13.7311 11.4188C13.7316 10.8208 13.9823 10.5504 14.5765 10.5401C15.5625 10.5228 16.5491 10.5234 17.5352 10.5399C18.1469 10.5502 18.3908 10.824 18.392 11.4591C18.396 13.432 18.3935 15.405 18.3936 17.3778Z" fill="#FEFEFE"/>
<path d="M11.5466 19.1346C11.5466 20.5386 11.5498 21.9427 11.5453 23.3467C11.5432 23.9994 11.2831 24.2632 10.6418 24.2665C9.6726 24.2717 8.70312 24.2726 7.73388 24.266C7.13525 24.262 6.87597 24.0148 6.87463 23.4097C6.86804 20.5431 6.8684 17.6766 6.87622 14.8099C6.8778 14.2057 7.1333 13.9544 7.73535 13.9472C8.72106 13.9356 9.70751 13.9353 10.6934 13.9478C11.2821 13.9554 11.5417 14.2266 11.5444 14.8221C11.551 16.2596 11.5466 17.6969 11.5466 19.1346Z" fill="#FEFEFE"/>
<path d="M0.00179469 20.3634C0.00179469 19.3935 -0.00333227 18.4234 0.00350367 17.4531C0.00838648 16.7709 0.266931 16.5117 0.941492 16.508C1.91146 16.5025 2.88143 16.4993 3.85116 16.5103C4.39999 16.5164 4.6976 16.7996 4.69979 17.3435C4.70736 19.2125 4.72299 21.0822 4.6849 22.9505C4.65927 24.2205 4.62142 24.2265 3.13729 24.2623C2.40487 24.28 1.67147 24.2704 0.938806 24.2676C0.26742 24.2649 0.00716578 24.0062 0.00301539 23.3239C-0.00308813 22.3372 0.00155055 21.3504 0.00179469 20.3634Z" fill="#FEFEFE"/>
</svg>
