<svg width="259" height="259" viewBox="0 0 259 259" fill="none" xmlns="http://www.w3.org/2000/svg">
<g opacity="0.8">
<path d="M129.421 227.368C105.761 227.368 82.9298 218.809 65.1305 203.262L67.9099 200.081C84.9385 214.954 106.784 223.146 129.421 223.146C139.379 223.146 149.18 221.59 158.554 218.521L159.868 222.535C150.069 225.74 139.825 227.368 129.421 227.368ZM179.428 213.629L177.263 210.003C205.459 193.189 222.978 162.374 222.978 129.59C222.978 129.214 222.975 128.84 222.97 128.464L227.195 128.414C227.198 128.804 227.201 129.196 227.201 129.59C227.201 146.831 222.649 163.785 214.041 178.613C205.689 192.998 193.72 205.109 179.428 213.629ZM50.5881 187.449C38.1924 170.587 31.6405 150.578 31.6405 129.59C31.6405 116.349 34.2409 103.508 39.3696 91.423L43.2584 93.0725C38.3519 104.636 35.8637 116.919 35.8637 129.59C35.8637 149.672 42.1316 168.814 53.9912 184.945L50.5881 187.449ZM220.486 108.056C212.963 76.111 188.82 50.1535 157.482 40.3128L158.747 36.2831C191.502 46.5683 216.736 73.6999 224.599 107.09L220.486 108.056ZM53.3285 75.1447L49.8946 72.6832C68.2413 47.089 97.9691 31.8088 129.421 31.8088C132.167 31.8088 134.938 31.9241 137.658 32.1505L137.308 36.3593C134.704 36.1421 132.05 36.032 129.421 36.032C99.3285 36.032 70.8839 50.6536 53.3285 75.1447Z" fill="white"/>
</g>
<g opacity="0.3">
<path d="M58.7854 214.762C38.1779 197.671 24.4732 173.72 20.1966 147.322L24.9157 146.557C29.0071 171.812 42.1201 194.73 61.8365 211.084C70.5113 218.273 80.174 224.002 90.5559 228.1L88.8004 232.545C77.9481 228.262 67.8502 222.279 58.7854 214.762ZM112.271 238.919L113.006 234.198C149.715 239.921 187.232 225.734 210.916 197.174C211.19 196.845 211.457 196.519 211.723 196.189L215.441 199.196C215.161 199.54 214.881 199.881 214.598 200.225C202.14 215.245 185.929 226.725 167.717 233.424C150.051 239.921 130.876 241.823 112.271 238.919ZM18.9565 123.038C20.3396 99.3959 29.0854 77.2335 44.2493 58.9506C53.8121 47.4171 65.3548 38.1116 78.5532 31.288L80.7492 35.5338C68.1239 42.061 57.0813 50.9642 47.9291 62.0017C33.4186 79.4943 25.0515 100.699 23.7282 123.317L18.9565 123.038ZM224.304 176.62C240.829 143.357 238.55 103.307 218.36 72.0945L222.377 69.4961C243.477 102.117 245.855 143.982 228.585 178.748L224.304 176.62ZM102.472 27.1924L101.26 22.57C135.731 13.5279 172.666 21.6933 200.06 44.4124C202.452 46.3963 204.785 48.5007 206.99 50.6638L203.642 54.0771C201.531 52.0046 199.298 49.9918 197.01 48.0912C170.799 26.3538 135.457 18.5413 102.472 27.1924Z" fill="white"/>
</g>
<g opacity="0.08">
<path d="M7.23993 172.211C-3.08239 142.643 -2.34558 110.376 9.31342 81.3507L14.5028 83.4335C3.34705 111.204 2.64316 142.078 12.5199 170.368C16.8645 182.812 23.0871 194.385 31.0096 204.759L26.5662 208.15C18.2825 197.309 11.78 185.216 7.23993 172.211ZM46.227 228.711L49.8163 224.426C83.1303 252.328 129.281 260.774 170.258 246.47C170.726 246.305 171.191 246.139 171.656 245.971L173.565 251.225C173.081 251.404 172.59 251.575 172.101 251.75C150.551 259.27 127.38 260.981 105.09 256.691C83.4658 252.531 63.1125 242.856 46.227 228.711ZM22.7351 56.2741C38.4002 33.4264 60.544 16.508 86.7772 7.35165C103.322 1.57466 120.503 -0.778767 137.847 0.35934L137.481 5.93881C120.891 4.8511 104.452 7.10159 88.6192 12.6296C63.519 21.3918 42.3332 37.5776 27.3463 59.4364L22.7351 56.2741ZM196.078 233.964C232.72 210.625 254.626 169.128 253.251 125.666L258.841 125.489C260.278 170.912 237.379 214.286 199.082 238.681L196.078 233.964ZM164.281 10.7012L165.856 5.33781C205.847 17.0966 237.914 47.5839 251.637 86.888C252.836 90.3198 253.902 93.836 254.804 97.3358L249.389 98.7322C248.525 95.3827 247.506 92.0177 246.359 88.7289C233.23 51.1238 202.544 21.9547 164.281 10.7012Z" fill="white"/>
</g>
<path opacity="0.3" d="M49.6443 125.9L125.94 49.6032C127.057 49.5569 128.175 49.5178 129.303 49.5178C146.484 49.5178 162.382 54.9707 175.401 64.2135L64.2536 175.36C55.0108 162.34 49.559 146.443 49.559 129.262C49.559 128.135 49.5981 127.016 49.6443 125.9ZM203.624 100.363C199.993 91.0312 194.67 82.5499 188.009 75.3065L75.3477 187.968C82.59 194.628 91.0724 199.953 100.404 203.584L203.624 100.363Z" fill="white"/>
<path d="M138.472 152.891C138.472 158.123 134.228 162.361 129 162.361C123.769 162.361 119.528 158.123 119.528 152.891C119.528 147.659 123.769 143.419 129 143.419C134.228 143.419 138.472 147.659 138.472 152.891Z" fill="white"/>
<path opacity="0.8" d="M101.234 128.789L109.105 140.108C114.366 135.859 121 133.247 128.256 133.074C136.668 132.875 144.404 135.992 150.225 141.226L157.611 129.451C149.506 122.876 139.138 119.025 127.928 119.291C117.871 119.532 108.646 123.047 101.234 128.789Z" fill="white"/>
<path opacity="0.7" d="M88.3674 110.293L96.2283 121.596C105.009 114.899 115.879 110.803 127.719 110.521C140.714 110.213 152.758 114.538 162.297 121.984L169.633 110.289C157.859 101.464 143.187 96.3618 127.393 96.7385C112.747 97.0863 99.2917 102.093 88.3674 110.293Z" fill="white"/>
</svg>
